<?xml version="1.0" encoding="UTF-8" standalone="no"?>
<!-- Created with Inkscape (http://www.inkscape.org/) -->

<svg
   version="1.1"
   id="svg1"
   width="5333.3335"
   height="5333.3335"
   viewBox="0 0 5333.3335 5333.3335"
   sodipodi:docname="palms.svg"
   inkscape:version="1.4 (e7c3feb1, 2024-10-09)"
   xmlns:inkscape="http://www.inkscape.org/namespaces/inkscape"
   xmlns:sodipodi="http://sodipodi.sourceforge.net/DTD/sodipodi-0.dtd"
   xmlns="http://www.w3.org/2000/svg"
   xmlns:svg="http://www.w3.org/2000/svg">
  <sodipodi:namedview
     id="namedview1"
     pagecolor="#505050"
     bordercolor="#eeeeee"
     borderopacity="1"
     inkscape:showpageshadow="0"
     inkscape:pageopacity="0"
     inkscape:pagecheckerboard="0"
     inkscape:deskcolor="#505050"
     inkscape:zoom="0.15180097"
     inkscape:cx="2276.0066"
     inkscape:cy="171.27691"
     inkscape:window-width="1392"
     inkscape:window-height="687"
     inkscape:window-x="0"
     inkscape:window-y="38"
     inkscape:window-maximized="0"
     inkscape:current-layer="g1">
    <inkscape:page
       x="0"
       y="0"
       inkscape:label="1"
       id="page1"
       width="5333.3335"
       height="5333.3335"
       margin="0"
       bleed="0" />
  </sodipodi:namedview>
  <defs
     id="defs1" />
  <g
     id="g1"
     inkscape:groupmode="layer"
     inkscape:label="1">
    <g
       id="group-R5"
       style="fill:#000000">
      <path
         id="path2"
         d="M 40000,0 H 0 V 40000 H 40000 V 0"
         style="fill:#000000;fill-opacity:1;fill-rule:nonzero;stroke:none"
         transform="matrix(0.13333333,0,0,-0.13333333,0,5333.3333)" />
      <path
         id="path3"
         d="m 11975.2,30731.8 c 1522,-1432 3007.7,-2947.2 4028,-4770.9 757.5,-1354.1 1238.1,-2842.1 1713.8,-4318.9"
         style="fill:#000000;stroke:#ffffff;stroke-width:80;stroke-linecap:round;stroke-linejoin:round;stroke-miterlimit:10;stroke-dasharray:none;stroke-opacity:1"
         transform="matrix(0.13333333,0,0,-0.13333333,0,5333.3333)" />
      <path
         id="path4"
         d="m 11820.7,30171.1 c -168.7,-761.1 -644.2,-1414.1 -1133.4,-2021 693.5,391 1216,1074.4 1411.4,1846.3"
         style="fill:#000000;stroke:#ffffff;stroke-width:80;stroke-linecap:round;stroke-linejoin:round;stroke-miterlimit:10;stroke-dasharray:none;stroke-opacity:1"
         transform="matrix(0.13333333,0,0,-0.13333333,0,5333.3333)" />
      <path
         id="path5"
         d="m 12662.1,29408 c -709.5,-584.3 -1270.3,-1347.6 -1615.9,-2199.3 136.3,224.4 328.8,408.5 521.2,587.1 479.5,444.9 973.9,873.6 1482.3,1285.1"
         style="fill:#000000;stroke:#ffffff;stroke-width:80;stroke-linecap:round;stroke-linejoin:round;stroke-miterlimit:10;stroke-dasharray:none;stroke-opacity:1"
         transform="matrix(0.13333333,0,0,-0.13333333,0,5333.3333)" />
      <path
         id="path6"
         d="m 13014.3,29000.6 c -303.4,-194.3 -515.9,-501.1 -695.1,-813.6 -359.8,-627.6 -619.2,-1312.8 -765,-2021.4 386.1,1015 1083.5,1876 1769.6,2717.8"
         style="fill:#000000;stroke:#ffffff;stroke-width:80;stroke-linecap:round;stroke-linejoin:round;stroke-miterlimit:10;stroke-dasharray:none;stroke-opacity:1"
         transform="matrix(0.13333333,0,0,-0.13333333,0,5333.3333)" />
      <path
         id="path7"
         d="m 13398.1,28367.1 c -642.4,-692.7 -1160.2,-1500.8 -1521,-2373.9 198,669.2 477.9,1314.1 831.2,1915.9"
         style="fill:#000000;stroke:#ffffff;stroke-width:80;stroke-linecap:round;stroke-linejoin:round;stroke-miterlimit:10;stroke-dasharray:none;stroke-opacity:1"
         transform="matrix(0.13333333,0,0,-0.13333333,0,5333.3333)" />
      <path
         id="path8"
         d="m 13295,28154 c -326.3,-874 -904.7,-1626.8 -1474.9,-2365.1 411.6,352 828.2,709.5 1135.4,1155.5 369,535.5 563.3,1179 621,1826.7"
         style="fill:#000000;stroke:#ffffff;stroke-width:80;stroke-linecap:round;stroke-linejoin:round;stroke-miterlimit:10;stroke-dasharray:none;stroke-opacity:1"
         transform="matrix(0.13333333,0,0,-0.13333333,0,5333.3333)" />
      <path
         id="path9"
         d="m 13575.7,28346.4 c -156.9,-1022.7 -517,-2013.8 -1053.1,-2898.7 647.8,766.2 1109.2,1688.8 1333.7,2666.7 61.4,267.2 95.7,577.8 -79.8,788.3"
         style="fill:#000000;stroke:#ffffff;stroke-width:80;stroke-linecap:round;stroke-linejoin:round;stroke-miterlimit:10;stroke-dasharray:none;stroke-opacity:1"
         transform="matrix(0.13333333,0,0,-0.13333333,0,5333.3333)" />
      <path
         id="path10"
         d="m 14141.7,27946.3 c -67.2,-707 -278.6,-1400 -617.6,-2024.1 -177.7,-327.2 -394.9,-640.7 -689.8,-867.9 396.8,719.5 616.1,1536 633.3,2357.5"
         style="fill:#000000;stroke:#ffffff;stroke-width:80;stroke-linecap:round;stroke-linejoin:round;stroke-miterlimit:10;stroke-dasharray:none;stroke-opacity:1"
         transform="matrix(0.13333333,0,0,-0.13333333,0,5333.3333)" />
      <path
         id="path11"
         d="m 14601.7,27503.6 c -137.6,-609.3 -452.6,-1177.3 -896.6,-1616.6 428.7,577.6 572.6,1322.5 577.6,2041.8"
         style="fill:#000000;stroke:#ffffff;stroke-width:80;stroke-linecap:round;stroke-linejoin:round;stroke-miterlimit:10;stroke-dasharray:none;stroke-opacity:1"
         transform="matrix(0.13333333,0,0,-0.13333333,0,5333.3333)" />
      <path
         id="path12"
         d="m 14611.6,27392.1 c 31.9,-1082.2 -551.6,-2076.8 -1136.9,-2987.5 572.8,560.9 1023.6,1245.8 1312.5,1993.6 127.2,329.4 224.3,682.3 180.6,1032.7"
         style="fill:#000000;stroke:#ffffff;stroke-width:80;stroke-linecap:round;stroke-linejoin:round;stroke-miterlimit:10;stroke-dasharray:none;stroke-opacity:1"
         transform="matrix(0.13333333,0,0,-0.13333333,0,5333.3333)" />
      <path
         id="path13"
         d="m 15397.3,26451.8 c -71.7,-257.6 -211.4,-490.9 -361.2,-712.4 -326.8,-483.4 -709.6,-928.8 -1138.4,-1324.5 494.9,706.3 795.6,1527.8 1070.6,2345.3"
         style="fill:#000000;stroke:#ffffff;stroke-width:80;stroke-linecap:round;stroke-linejoin:round;stroke-miterlimit:10;stroke-dasharray:none;stroke-opacity:1"
         transform="matrix(0.13333333,0,0,-0.13333333,0,5333.3333)" />
      <path
         id="path14"
         d="m 15541.6,26300.1 c 95.7,-128.4 62.6,-310.9 0.3,-458.4 -134.9,-318.9 -378.6,-576.4 -587.4,-852.5 -208.8,-276.2 -392.1,-600.6 -371.5,-946.2 90.3,280.8 250.8,538.8 462.8,744 259.4,250.9 623.6,481.4 624.1,842.3 -74.6,-568.9 -339.6,-1111.1 -742.6,-1519.5 473.7,274.8 829.1,746.5 962.5,1277.6 35.4,-898.5 -645.2,-1706 -623.4,-2605 282.6,724.4 565.1,1448.7 847.7,2173 -27.1,-519.2 -126.5,-1034.6 -294.4,-1526.6 333.7,595.7 528.5,1268.6 564.7,1950.5"
         style="fill:#000000;stroke:#ffffff;stroke-width:80;stroke-linecap:round;stroke-linejoin:round;stroke-miterlimit:10;stroke-dasharray:none;stroke-opacity:1"
         transform="matrix(0.13333333,0,0,-0.13333333,0,5333.3333)" />
      <path
         id="path15"
         d="m 16223.1,24173.6 c -46.5,-535.5 -192.6,-1062.2 -428.5,-1545.3 392.6,346.4 634.3,858.3 652.3,1381.5 100.3,-536.1 98,-1091.2 -6.9,-1626.4 251.4,353.2 283.1,812.3 306,1245.3 139.7,-625.1 -32,-1306.5 205.9,-1901.1 45.2,-112.8 110.2,-225.9 217.5,-282.9 73.2,519.1 -138.6,1062.8 14.1,1564.3 25.6,-518.5 130.1,-1032.9 309,-1520.2 36.9,255.4 32.2,516.7 -13.9,770.5"
         style="fill:#000000;stroke:#ffffff;stroke-width:80;stroke-linecap:round;stroke-linejoin:round;stroke-miterlimit:10;stroke-dasharray:none;stroke-opacity:1"
         transform="matrix(0.13333333,0,0,-0.13333333,0,5333.3333)" />
      <path
         id="path16"
         d="m 14590.3,28106.9 c 512.3,-570.1 1280,-836.5 1870.4,-1325.3 343.3,-284.2 623.9,-643.7 816.2,-1045.7 -354.9,370.7 -785.2,668.8 -1257,870.7 594.9,-479.2 1226,-1013.9 1400.8,-1757.5 -340.7,508.9 -796.2,940.6 -1322.8,1253.4 431.9,-657.9 1078.1,-1138.9 1637.8,-1692.2 137.1,-135.5 276.8,-291.7 293.2,-483.7 -429,475 -960.1,857.3 -1546.7,1113.3"
         style="fill:#000000;stroke:#ffffff;stroke-width:80;stroke-linecap:round;stroke-linejoin:round;stroke-miterlimit:10;stroke-dasharray:none;stroke-opacity:1"
         transform="matrix(0.13333333,0,0,-0.13333333,0,5333.3333)" />
      <path
         id="path17"
         d="m 16918.9,24506.2 c 219.8,-341 538.9,-605.1 792.6,-921.7 281.8,-351.6 481.2,-768.7 577.9,-1208.8 -145.2,511.2 -564.5,893.5 -987.8,1214.9 425.1,-470.8 667.8,-1102.3 667.3,-1736.6 -141.5,398.4 -382.5,761 -695,1045.9"
         style="fill:#000000;stroke:#ffffff;stroke-width:80;stroke-linecap:round;stroke-linejoin:round;stroke-miterlimit:10;stroke-dasharray:none;stroke-opacity:1"
         transform="matrix(0.13333333,0,0,-0.13333333,0,5333.3333)" />
      <path
         id="path18"
         d="m 18413.5,30207.3 c 157.2,-302 182.7,-669.9 68.5,-990.7 -37.2,498.1 -171.9,1027.2 -554,1348.8 135.3,-365.3 204.9,-754.8 204.6,-1144.4 0,-94.6 -8.4,-199.3 -76.4,-265.2 -17.4,170.1 -40.5,339.8 -78,506.7 -102.6,457.4 -310,883.3 -515.7,1304.5"
         style="fill:#000000;stroke:#ffffff;stroke-width:80;stroke-linecap:round;stroke-linejoin:round;stroke-miterlimit:10;stroke-dasharray:none;stroke-opacity:1"
         transform="matrix(0.13333333,0,0,-0.13333333,0,5333.3333)" />
      <path
         id="path19"
         d="m 16619.7,28769.4 c 12,25.9 24,51.8 36,77.7"
         style="fill:#000000;stroke:#ffffff;stroke-width:80;stroke-linecap:round;stroke-linejoin:round;stroke-miterlimit:10;stroke-dasharray:none;stroke-opacity:1"
         transform="matrix(0.13333333,0,0,-0.13333333,0,5333.3333)" />
      <path
         id="path20"
         d="m 17633.6,30283.3 c -212.9,-487 -355.9,-1004.5 -423.2,-1531.7 -232.4,696 -230.3,1468.2 6.1,2162.9 -245.7,-386.4 -497.6,-789.4 -555.3,-1243.6 -0.9,102.1 -28.3,203.9 -78.8,292.7 -70.6,-155.2 -141.2,-310.4 -211.8,-465.6 -68.4,602.7 230.2,1181.1 538.3,1703.5 -235,-249.9 -430.2,-537.2 -576,-847.8 26.3,166.1 52.7,332.3 79,498.5 -230.4,-460.4 -460.9,-920.8 -691.3,-1381.2 55.2,503.2 110.4,1006.5 165.6,1509.8 -178.9,-243.2 -328.9,-507.6 -445.8,-786 60.2,146.8 66.6,315 17.7,465.9 -13.1,40.5 -30.2,80.6 -32.2,123.1 -2.1,46.1 13.8,91 30.9,133.8 107,269.4 268,517.2 470.7,724.3"
         style="fill:#000000;stroke:#ffffff;stroke-width:80;stroke-linecap:round;stroke-linejoin:round;stroke-miterlimit:10;stroke-dasharray:none;stroke-opacity:1"
         transform="matrix(0.13333333,0,0,-0.13333333,0,5333.3333)" />
      <path
         id="path21"
         d="m 15359,31229.5 c -278.2,-494.9 -458.7,-1044.4 -528.2,-1607.8 -132.4,529.7 -121.7,1083.3 -110.2,1629.2 -118.4,-47.4 -143.5,-200.6 -152.7,-327.8 -16.5,-227.4 -39.7,-457.8 -122.7,-670.2 -83,-212.3 -233.9,-407.5 -444,-496.2 157.7,344.2 234.8,725 223.6,1103.5 -39.5,-170.1 -91.9,-341.3 -194.2,-482.9 -102.3,-141.6 -262.5,-250.6 -437.2,-253.2 193.5,173.4 302.6,436.9 288.4,696.4 -23.6,-74.6 -51.6,-155.3 -117.7,-197.1 -66.1,-41.9 -178.5,-10.2 -181.3,68 -2.5,70.5 75.9,111.3 138.5,143.8 362.7,188.5 519.8,691.4 329,1052.8"
         style="fill:#000000;stroke:#ffffff;stroke-width:80;stroke-linecap:round;stroke-linejoin:round;stroke-miterlimit:10;stroke-dasharray:none;stroke-opacity:1"
         transform="matrix(0.13333333,0,0,-0.13333333,0,5333.3333)" />
      <path
         id="path22"
         d="m 15216.5,28254.5 c 0,31.9 0,63.8 0,95.7"
         style="fill:#000000;stroke:#ffffff;stroke-width:80;stroke-linecap:round;stroke-linejoin:round;stroke-miterlimit:10;stroke-dasharray:none;stroke-opacity:1"
         transform="matrix(0.13333333,0,0,-0.13333333,0,5333.3333)" />
      <path
         id="path23"
         d="m 14228,32067.8 c -597.1,-251.6 -764.3,-1033.2 -1268.7,-1439.7 2.1,488.1 540.6,860.4 513.2,1347.8 -324.6,-240.3 -365.7,-767.4 -727.7,-946.3 -1.6,399 428.6,753.1 301.4,1131.3 -262.8,-422.7 -500.5,-861 -711.5,-1311.8 1.1,433.5 129.5,865.8 365.3,1229.6 -282.9,-282 -448.7,-657.7 -675,-986.8 -187.1,-272 -416.4,-513.2 -598.3,-788.7 -181.8,-275.4 -317.1,-600.3 -281.9,-928.5 -1.6,471.6 -2.7,947.8 100.7,1407.9 108.6,483 332.9,939.5 649,1320.5 -498.8,-382.6 -863.1,-937 -1016.6,-1546.7 29.2,447 130.9,889.2 299.7,1304.1 -231.2,-167 -412.1,-402.8 -513.6,-669.4 10.4,131.6 38,261.8 82,386.2 -56.2,-60.5 -112.3,-121 -168.5,-181.5 -85.5,52.3 -26.8,183.6 38.4,259.8 138,161.5 276.1,322.9 414.2,484.4 -426.7,-179.9 -832.3,-409.5 -1206.24,-682.5 191.44,326.9 478.84,596.9 817.14,767.6 -45.5,-21 -91,-42.1 -136.5,-63.1"
         style="fill:#000000;stroke:#ffffff;stroke-width:80;stroke-linecap:round;stroke-linejoin:round;stroke-miterlimit:10;stroke-dasharray:none;stroke-opacity:1"
         transform="matrix(0.13333333,0,0,-0.13333333,0,5333.3333)" />
      <path
         id="path24"
         d="m 10542.6,32347.8 c 2739.6,145.3 5515.7,-471.8 7935.8,-1764 1508.6,-805.6 2932,-1935.1 3614.5,-3503.2 -308.2,454.9 -624.6,839.1 -1013.5,1227.3 240.3,-609 363.5,-1264 361.1,-1918.6 -98.8,1197.2 -686.3,2346.9 -1598.7,3128.4 357.7,-505.4 566.9,-1114.5 595.3,-1732.9 -161.3,698.1 -515.1,1350.7 -1012.1,1866.8 141.8,-434.1 247.2,-880 314.6,-1331.6 -262.3,619.2 -604.7,1204.3 -1016,1736.4"
         style="fill:#000000;stroke:#ffffff;stroke-width:80;stroke-linecap:round;stroke-linejoin:round;stroke-miterlimit:10;stroke-dasharray:none;stroke-opacity:1"
         transform="matrix(0.13333333,0,0,-0.13333333,0,5333.3333)" />
      <path
         id="path25"
         d="m 10147.2,30902.2 c 637.2,-940.3 1102.2,-2063.3 967.4,-3191.1 -113.7,598.9 -368.9,1170.4 -738.7,1654.9 290.9,-547.9 445.9,-1167.4 447.3,-1787.7 -104.2,239.8 -208.4,479.6 -312.6,719.4 242.5,-959.9 551.2,-1903 923.2,-2820.5 -242.1,658.9 -549.9,1293.6 -917.3,1891.8 174.3,-474.9 298.8,-968.1 370.7,-1468.8 -84.4,313.9 -222.8,613.1 -407.3,880.7 8.4,-40.9 16.8,-81.8 25.1,-122.7 -34.2,42.8 -68.5,85.5 -102.8,128.2 -4.9,-95.2 31.3,-191.9 97.6,-260.4"
         style="fill:#000000;stroke:#ffffff;stroke-width:80;stroke-linecap:round;stroke-linejoin:round;stroke-miterlimit:10;stroke-dasharray:none;stroke-opacity:1"
         transform="matrix(0.13333333,0,0,-0.13333333,0,5333.3333)" />
      <path
         id="path26"
         d="m 10179.3,26990.4 c 5.6,-487.7 327.5,-904.7 542,-1342.6 226.1,-461.5 339.6,-977.5 328,-1491.2 -190.6,656.2 -495.4,1279 -896.8,1832 159.2,-422.3 313,-846.6 461.4,-1272.8 151.9,-436.3 299.8,-904.9 185.8,-1352.7 -121.7,608.3 -381.2,1188.5 -753.4,1684.7 22.7,-767 446,-1458.1 651,-2197.5 62.1,-224 95.9,-489.1 -53.8,-666.9 -130.7,600 -358,1178.8 -670.58,1707.3 14.27,-78.4 28.58,-156.8 42.78,-235.2"
         style="fill:#000000;stroke:#ffffff;stroke-width:80;stroke-linecap:round;stroke-linejoin:round;stroke-miterlimit:10;stroke-dasharray:none;stroke-opacity:1"
         transform="matrix(0.13333333,0,0,-0.13333333,0,5333.3333)" />
      <path
         id="path27"
         d="m 9966.42,23376.3 c 424.78,-691.4 629.98,-1515.4 579.18,-2325.3 -108.6,458.3 -297.9,897.3 -556.81,1290.7 176.31,-863.7 324.11,-1733.1 442.91,-2606.6 -223.4,812.7 -501.03,1610.5 -830.56,2386.2 35.45,-869.3 200.44,-1727.5 364.96,-2581.9 -138.06,434.3 -278.74,874.2 -524.79,1257.7 24.35,-305.8 48.69,-611.7 73.04,-917.5 -14.95,128.4 -72.35,251.5 -161.12,345.4 65.64,-653.5 -41.29,-1323.7 -307.06,-1924.4 171.41,640.3 166.73,1326.7 -13.41,1964.6 19.78,-900.3 -210.68,-1804.8 -658.85,-2585.8 164.25,495.2 292.34,1002.5 382.93,1516.3 -130.4,-212.5 -260.81,-424.9 -391.22,-637.4"
         style="fill:#000000;stroke:#ffffff;stroke-width:80;stroke-linecap:round;stroke-linejoin:round;stroke-miterlimit:10;stroke-dasharray:none;stroke-opacity:1"
         transform="matrix(0.13333333,0,0,-0.13333333,0,5333.3333)" />
      <path
         id="path28"
         d="m 9449.89,30756.9 c 179.99,-1487 -83.4,-2998 -525.59,-4429.1 -442.2,-1431.1 -1060.71,-2800.2 -1614.72,-4191.8 -294.2,-739.1 -574.47,-1493 -1021.49,-2150.9 -313.12,-460.9 -703.9,-868 -986.01,-1348.5 -290.16,-494.2 -457.83,-1053.6 -757.82,-1541.9 -574.35,-934.9 -1619.07,-1593 -1903.99,-2652.6"
         style="fill:#000000;stroke:#ffffff;stroke-width:80;stroke-linecap:round;stroke-linejoin:round;stroke-miterlimit:10;stroke-dasharray:none;stroke-opacity:1"
         transform="matrix(0.13333333,0,0,-0.13333333,0,5333.3333)" />
      <path
         id="path29"
         d="M 9112.88,31299.2 C 8978.43,29077.5 8471.69,26872 7552.06,24845.1 7204.27,24078.6 6798.99,23339.7 6394.15,22601.7 5798.67,21516.2 5199.9,20425.6 4442.86,19445.9 3749.87,18549.1 2932.81,17756.4 2103.54,16983.9"
         style="fill:#000000;stroke:#ffffff;stroke-width:80;stroke-linecap:round;stroke-linejoin:round;stroke-miterlimit:10;stroke-dasharray:none;stroke-opacity:1"
         transform="matrix(0.13333333,0,0,-0.13333333,0,5333.3333)" />
      <path
         id="path30"
         d="m 4838.9,18020.5 c 15.01,8 30.02,16.1 45.02,24.1 -198.22,305.3 -587.4,421.7 -949.02,463.6"
         style="fill:#000000;stroke:#ffffff;stroke-width:80;stroke-linecap:round;stroke-linejoin:round;stroke-miterlimit:10;stroke-dasharray:none;stroke-opacity:1"
         transform="matrix(0.13333333,0,0,-0.13333333,0,5333.3333)" />
      <path
         id="path31"
         d="m 5203.61,18600.8 c -15.14,157 -152.73,274.5 -294.58,343.5 -218.9,106.6 -465.28,139 -706.74,170.1"
         style="fill:#000000;stroke:#ffffff;stroke-width:80;stroke-linecap:round;stroke-linejoin:round;stroke-miterlimit:10;stroke-dasharray:none;stroke-opacity:1"
         transform="matrix(0.13333333,0,0,-0.13333333,0,5333.3333)" />
      <path
         id="path32"
         d="m 4257.99,16760.3 c -92.01,201.7 -273.72,351.6 -473.27,448.2 -199.55,96.6 -418.16,145.7 -634.59,193.7"
         style="fill:#000000;stroke:#ffffff;stroke-width:80;stroke-linecap:round;stroke-linejoin:round;stroke-miterlimit:10;stroke-dasharray:none;stroke-opacity:1"
         transform="matrix(0.13333333,0,0,-0.13333333,0,5333.3333)" />
      <path
         id="path33"
         d="m 6405.12,20381.4 c 33.61,102.8 -66.07,197.4 -156.41,256.8 -187.32,123.3 -410,235.2 -627.37,180.2"
         style="fill:#000000;stroke:#ffffff;stroke-width:80;stroke-linecap:round;stroke-linejoin:round;stroke-miterlimit:10;stroke-dasharray:none;stroke-opacity:1"
         transform="matrix(0.13333333,0,0,-0.13333333,0,5333.3333)" />
      <path
         id="path34"
         d="m 7005.53,21438.7 c -119.93,234 -396.94,376.5 -657.05,338.1"
         style="fill:#000000;stroke:#ffffff;stroke-width:80;stroke-linecap:round;stroke-linejoin:round;stroke-miterlimit:10;stroke-dasharray:none;stroke-opacity:1"
         transform="matrix(0.13333333,0,0,-0.13333333,0,5333.3333)" />
      <path
         id="path35"
         d="m 7204.78,21685.7 c -57.27,131.7 -192.49,216.2 -332.23,249.1 -139.75,32.9 -285.61,21.8 -428.73,10.5"
         style="fill:#000000;stroke:#ffffff;stroke-width:80;stroke-linecap:round;stroke-linejoin:round;stroke-miterlimit:10;stroke-dasharray:none;stroke-opacity:1"
         transform="matrix(0.13333333,0,0,-0.13333333,0,5333.3333)" />
      <path
         id="path36"
         d="m 8936.44,26298.9 c 29.62,40.8 -10.35,95.4 -49.62,127 -145.96,117.3 -322.72,196 -507.6,225.8"
         style="fill:#000000;stroke:#ffffff;stroke-width:80;stroke-linecap:round;stroke-linejoin:round;stroke-miterlimit:10;stroke-dasharray:none;stroke-opacity:1"
         transform="matrix(0.13333333,0,0,-0.13333333,0,5333.3333)" />
      <path
         id="path37"
         d="m 9248.23,27552.8 c -124.9,140.2 -318.52,216 -505.38,197.8"
         style="fill:#000000;stroke:#ffffff;stroke-width:80;stroke-linecap:round;stroke-linejoin:round;stroke-miterlimit:10;stroke-dasharray:none;stroke-opacity:1"
         transform="matrix(0.13333333,0,0,-0.13333333,0,5333.3333)" />
      <path
         id="path38"
         d="m 9204.61,27242.3 c -153.66,132 -355.53,206.6 -558.09,206.2"
         style="fill:#000000;stroke:#ffffff;stroke-width:80;stroke-linecap:round;stroke-linejoin:round;stroke-miterlimit:10;stroke-dasharray:none;stroke-opacity:1"
         transform="matrix(0.13333333,0,0,-0.13333333,0,5333.3333)" />
      <path
         id="path39"
         d="m 8806.49,19325.1 c -324.75,-237.2 -613.91,-523 -854.84,-844.9 157.13,730.8 648.49,1337.6 1124.64,1913.8 -487.04,-337 -896.98,-784.7 -1189.84,-1299.5 175.28,412.9 406.82,801.9 686.2,1152.9 250.23,314.4 545.69,610.6 670.82,992.4 -317.8,-267.7 -618.7,-555.4 -900.31,-861 347.26,440.7 721.71,859.9 1120.53,1254.5"
         style="fill:#000000;stroke:#ffffff;stroke-width:80;stroke-linecap:round;stroke-linejoin:round;stroke-miterlimit:10;stroke-dasharray:none;stroke-opacity:1"
         transform="matrix(0.13333333,0,0,-0.13333333,0,5333.3333)" />
      <path
         id="path40"
         d="m 7521.83,20283.4 c 613.63,586.2 1227.26,1172.4 1840.9,1758.7 -636.9,-300.7 -1215.77,-723.7 -1695.69,-1239.1 406.43,784.7 1085.23,1387.2 1748.87,1970.8 -730.7,-201 -1164.91,-934 -1772.58,-1386.8 218.62,468.2 551.64,870.2 919.06,1229.2 186.35,182.1 382.73,353.6 581.73,521.6 213.24,180 368.72,234.8 246.54,518.3"
         style="fill:#000000;stroke:#ffffff;stroke-width:80;stroke-linecap:round;stroke-linejoin:round;stroke-miterlimit:10;stroke-dasharray:none;stroke-opacity:1"
         transform="matrix(0.13333333,0,0,-0.13333333,0,5333.3333)" />
      <path
         id="path41"
         d="m 9805.52,24827.2 c -810.54,-361.3 -1519.93,-946.5 -2028.84,-1673.5 236.94,292.2 581.5,471.5 907.43,659.4 416.13,239.9 816.96,506.4 1199.23,797.3 -417.3,-257.2 -733.32,-648.1 -1019.43,-1046.2 -253.45,-352.6 -490.37,-717.1 -709.73,-1091.8 412.83,536.4 890.1,1023.2 1418.28,1446.5"
         style="fill:#000000;stroke:#ffffff;stroke-width:80;stroke-linecap:round;stroke-linejoin:round;stroke-miterlimit:10;stroke-dasharray:none;stroke-opacity:1"
         transform="matrix(0.13333333,0,0,-0.13333333,0,5333.3333)" />
      <path
         id="path42"
         d="m 9857.1,26568 c -433.39,-185.2 -807.32,-506.8 -1055.32,-907.7 40.56,-83.6 165.57,-54.3 248.62,-12.6 309.3,155.4 618.61,310.9 927.92,466.3 -670.64,-470.5 -1341.42,-977.8 -1782.81,-1668 540.33,486.2 1173.2,869.2 1854.59,1122.4 -339.14,-233.6 -657.4,-497.5 -949.8,-787.4 -83.08,-82.4 -168.74,-176.7 -178.53,-293.3"
         style="fill:#000000;stroke:#ffffff;stroke-width:80;stroke-linecap:round;stroke-linejoin:round;stroke-miterlimit:10;stroke-dasharray:none;stroke-opacity:1"
         transform="matrix(0.13333333,0,0,-0.13333333,0,5333.3333)" />
      <path
         id="path43"
         d="m 9124.58,26738.4 c 323.84,395.7 647.68,791.4 971.52,1187.1 -59.1,61.5 -161.93,27.6 -236.84,-13.2 -153.85,-83.7 -299.78,-181.2 -445.46,-278.5 162.68,223.1 293.52,469.3 387.32,728.9"
         style="fill:#000000;stroke:#ffffff;stroke-width:80;stroke-linecap:round;stroke-linejoin:round;stroke-miterlimit:10;stroke-dasharray:none;stroke-opacity:1"
         transform="matrix(0.13333333,0,0,-0.13333333,0,5333.3333)" />
      <path
         id="path44"
         d="m 9966.3,32671.9 c 719.4,751 1779.9,1098.8 2818.1,1157.9 1038.3,59.2 2071.9,-141.4 3092.5,-340.9 -50.9,63.5 -101.9,127 -152.8,190.5 786.3,-149 1539.3,-472.1 2189,-939.4"
         style="fill:#000000;stroke:#ffffff;stroke-width:80;stroke-linecap:round;stroke-linejoin:round;stroke-miterlimit:10;stroke-dasharray:none;stroke-opacity:1"
         transform="matrix(0.13333333,0,0,-0.13333333,0,5333.3333)" />
      <path
         id="path45"
         d="m 17714.2,32638 c -483,320.9 -1028.1,547.7 -1596.1,664.1 92.9,-195.2 186.9,-394.1 218.8,-607.9 32,-213.8 -6.8,-448.8 -152.4,-608.6 35.2,439.6 -92.6,890.4 -353.1,1246.2 66,-241.1 36.7,-507 -80.2,-728 -24,192 -34.5,385.8 -31.2,579.3 -78.7,68.3 -202.7,58.9 -292.4,6 -89.7,-53 -152.8,-140.3 -212.7,-225.5 -192.5,-273.7 -386.2,-572 -394.3,-906.5 -115.1,460.7 -2.1,972.6 296.3,1342 -41,-7.3 -82,-14.7 -123,-22"
         style="fill:#000000;stroke:#ffffff;stroke-width:80;stroke-linecap:round;stroke-linejoin:round;stroke-miterlimit:10;stroke-dasharray:none;stroke-opacity:1"
         transform="matrix(0.13333333,0,0,-0.13333333,0,5333.3333)" />
      <path
         id="path46"
         d="m 14549.6,33476.1 c -171.7,-445.2 -534.9,-812.8 -978.1,-989.7 204.9,346.4 330.6,739.2 364.9,1140.2 -189,-197.7 -412.6,-362.1 -657.6,-483.5 -13.2,118 28.3,240.9 110.2,326.8 -258.8,-209.8 -442.5,-510.5 -511.1,-836.6 -12.3,329 -7.1,658.6 15.5,987 -75,-181.3 -150,-362.5 -225,-543.8 52.2,53.1 32,148.7 -23.6,198.2 -55.5,49.5 -133.6,63.7 -207.8,70.1 -222.1,19.4 -448.5,-13.1 -656.3,-94 88.6,-12.1 177.1,-24.2 265.6,-36.3 -426.7,73.6 -869.6,51.6 -1286.9,-63.8 205.9,-154.3 411.8,-308.6 617.7,-462.9 -346.6,211.8 -794.1,248.8 -1170.8,96.9 -30.7,-12.4 -66.7,-36.9 -58.6,-68.9 8,-32.1 69.9,6.5 38.5,16.8"
         style="fill:#000000;stroke:#ffffff;stroke-width:80;stroke-linecap:round;stroke-linejoin:round;stroke-miterlimit:10;stroke-dasharray:none;stroke-opacity:1"
         transform="matrix(0.13333333,0,0,-0.13333333,0,5333.3333)" />
      <path
         id="path47"
         d="m 10084.8,33187.6 c -48,213.8 23.3,435.4 109.2,637 360.9,847.6 1000.8,1569.9 1786.8,2050.5 785.9,480.5 1713.2,720.4 2634.3,704.5 251.4,-4.3 504.2,-27.5 746.1,-96.1 877.6,-248.8 1499.5,-1078.3 1727.3,-1961.6 -23.1,53.1 -46.2,106.2 -69.3,159.4"
         style="fill:#000000;stroke:#ffffff;stroke-width:80;stroke-linecap:round;stroke-linejoin:round;stroke-miterlimit:10;stroke-dasharray:none;stroke-opacity:1"
         transform="matrix(0.13333333,0,0,-0.13333333,0,5333.3333)" />
      <path
         id="path48"
         d="m 17011.6,34367.2 c -236.5,756.7 -725.1,1432.2 -1369.6,1893.8 448.2,-783 299.7,-1860 -343.7,-2492.6 345.5,924.7 379,1962.8 93.9,2907.9 76,-815.2 -273.2,-1658.3 -903.3,-2180.9 224.4,617.2 448.7,1234.3 673.1,1851.5 -266,-756.2 -676.6,-1461.2 -1203.1,-2065.6 343.1,839.8 686.1,1679.7 1029.1,2519.6 -236.5,-466.8 -609.5,-847.3 -926,-1264 -316.5,-416.7 -588,-907.5 -564.5,-1430.3 1,-23.6 -7,-52.7 -30.1,-57.6 -23.2,-4.9 -34,41.7 -10.6,38.9 -130.1,891.5 92.7,1719.3 579.7,2477.3 -114.8,-259.8 -343.7,-447.7 -529,-663 -412.7,-479.8 -612,-1102.9 -784.6,-1711.8 34.2,604.3 142.2,1204.3 320.6,1782.6 -233.6,-290.7 -436.4,-606.3 -603.7,-939.6 9.3,78.1 38.5,153.8 84,217.9 -237.7,-405.5 -400.5,-854.7 -477.8,-1318.3 -25.8,714.4 -38.6,1479.3 347.2,2081 -384.2,-627.7 -728.9,-1279.7 -1031.2,-1950.8 17.6,107.9 35.3,215.8 52.9,323.7 -42.9,-135.6 -85.9,-271.2 -128.8,-406.7 -30.2,87.8 -60.4,175.6 -90.5,263.5 -26.9,-141.6 -53.8,-283.2 -80.7,-424.7 -117.3,85.7 -194.5,224.1 -205.9,368.9"
         style="fill:#000000;stroke:#ffffff;stroke-width:80;stroke-linecap:round;stroke-linejoin:round;stroke-miterlimit:10;stroke-dasharray:none;stroke-opacity:1"
         transform="matrix(0.13333333,0,0,-0.13333333,0,5333.3333)" />
      <path
         id="path49"
         d="m 9503.62,32817 c 25.68,995.7 -368.11,1968.6 -946.03,2780 -577.92,811.3 -1332.72,1479 -2106.26,2106.6 -124.71,101.2 -256.57,204.7 -413.91,236.9 -19.33,4 -42.61,5.6 -55.6,-9.3 -12.99,-14.8 5.6,-45.7 21.41,-33.9"
         style="fill:#000000;stroke:#ffffff;stroke-width:80;stroke-linecap:round;stroke-linejoin:round;stroke-miterlimit:10;stroke-dasharray:none;stroke-opacity:1"
         transform="matrix(0.13333333,0,0,-0.13333333,0,5333.3333)" />
      <path
         id="path50"
         d="m 9294.96,32900.4 c -44.43,533.7 -243.61,1053.7 -567.15,1480.4 -33.77,-240.3 -127.07,-472 -269.24,-668.6 58.92,453.5 100.11,909.2 123.46,1365.9 -327.79,-469.9 -725.46,-891 -1175.89,-1245.1 198.04,589.3 567.83,1119.7 1052.25,1509.3 -665.56,-285 -1217.47,-776.8 -1756.47,-1260.2 229.25,483.6 520.37,937.9 864.02,1348.2 -329.17,-293.2 -650.01,-595.7 -962,-907.2 58.53,211.7 168.52,408.9 317.84,569.8 -117.79,-160.2 -266.73,-297.4 -436.04,-401.7 116.78,434.4 595.33,677.1 777.6,1088.3 -572.27,-631.1 -1338.12,-1084.2 -2166.77,-1281.9 394.26,641.8 1124.87,988.1 1651.38,1526.7 69.66,71.3 138.79,152.1 153.2,250.7 14.4,98.6 -51.15,214.6 -150.76,217.3 -435.13,-550 -880.13,-1109.3 -1462.72,-1499.7 507.1,544.6 781.03,1299.5 741.23,2042.6 -389.44,-694.1 -859.9,-1409.2 -1594.66,-1715.1 503.69,549.4 1032.43,1151.7 1115.95,1892.4 -330.33,-362.1 -660.65,-724.1 -990.99,-1086.2 240.55,280.9 483.88,566.1 643.41,899.8 -208.57,-88.8 -444.91,-111 -666.34,-62.5 56.84,257.5 174.19,501.3 339.91,706.4 -94.13,-110.1 -251.02,-162.4 -392.35,-130.7"
         style="fill:#000000;stroke:#ffffff;stroke-width:80;stroke-linecap:round;stroke-linejoin:round;stroke-miterlimit:10;stroke-dasharray:none;stroke-opacity:1"
         transform="matrix(0.13333333,0,0,-0.13333333,0,5333.3333)" />
      <path
         id="path51"
         d="m 9942.67,33516.5 c 262.83,785.8 463.33,1592.4 598.93,2409.8 90.7,547 149.3,1125.8 -54.3,1641.4 -19.7,-578.5 -106.2,-1154.7 -257.1,-1713.5 27.8,532.6 55.5,1065.2 83.3,1597.8 -55.8,-262.8 -130.9,-521.5 -224.6,-773.2 8.1,288.8 16.2,577.6 24.3,866.4 -48.3,-167.6 -96.5,-335.3 -144.7,-502.9 -83.74,371 -167.48,741.9 -251.22,1112.9"
         style="fill:#000000;stroke:#ffffff;stroke-width:80;stroke-linecap:round;stroke-linejoin:round;stroke-miterlimit:10;stroke-dasharray:none;stroke-opacity:1"
         transform="matrix(0.13333333,0,0,-0.13333333,0,5333.3333)" />
      <path
         id="path52"
         d="m 9690.39,33564.8 c 214.29,1733.8 -37.09,3522.9 -720.87,5130.6"
         style="fill:#000000;stroke:#ffffff;stroke-width:80;stroke-linecap:round;stroke-linejoin:round;stroke-miterlimit:10;stroke-dasharray:none;stroke-opacity:1"
         transform="matrix(0.13333333,0,0,-0.13333333,0,5333.3333)" />
      <path
         id="path53"
         d="m 9141.41,31220.8 c -372.72,-257.3 -749.24,-517.9 -1051.43,-855.2 -302.2,-337.3 -527.58,-764 -537.66,-1216.8 352.12,630.5 828.9,1191 1394.71,1639.8 -295.39,-177.5 -495.26,-475.3 -674.53,-769.7 -322.66,-529.7 -611.04,-1080.3 -862.75,-1647.3 -46.22,-104.1 -92.12,-210.2 -164.39,-298.3 -171.12,-208.5 -476.02,-299.7 -586.28,-545.8 546.08,136.3 872.24,682.2 1123.99,1185.6 251.75,503.4 537.57,1059.2 1065.29,1254.8 -414.22,-726.1 -836.86,-1463.1 -1440.12,-2041.8 -150.3,-144.2 -312.43,-279.3 -431.8,-449.9 -119.38,-170.7 -192.54,-387.9 -138.22,-588.9 340.11,469.9 703.45,923.1 1088.26,1357.2 -413.98,-703.5 -842.98,-1473.1 -748.28,-2283.8 184.38,641.4 376.8,1299.2 780.71,1830.4 -207.9,-502.9 -331.24,-1040.8 -363.29,-1584.1 23.33,546.2 496.96,957.6 697.43,1466.2"
         style="fill:#000000;stroke:#ffffff;stroke-width:80;stroke-linecap:round;stroke-linejoin:round;stroke-miterlimit:10;stroke-dasharray:none;stroke-opacity:1"
         transform="matrix(0.13333333,0,0,-0.13333333,0,5333.3333)" />
      <path
         id="path54"
         d="m 8516.05,31312.3 c -507.34,-228.6 -882.52,-694.8 -1086.57,-1212.5 -204.06,-517.7 -251.31,-1085 -233.93,-1641.2 -68.13,368 -136.26,735.9 -204.39,1103.9 -69.48,-351 -118.64,-705.9 -147.16,-1062.5 -157.08,433.8 -227.92,898.6 -207.18,1359.5 -204.44,-1016.9 -157.7,-2083.4 134.92,-3078.5 -290.21,319 -392.4,761.5 -484.08,1183 0.33,-702 137.27,-1403.7 400.92,-2054.3 -379.1,497.7 -624.99,1095.8 -705.5,1716.2 46.04,-671.7 124.57,-1341.2 235.23,-2005.3 -74.79,312.7 -175.53,619.2 -300.83,915.3 -25.23,-93.4 -12.35,-196.6 35.09,-280.9 17.93,21 -23.57,49.6 -45.66,32.9 -22.08,-16.6 -22.79,-48.9 -21.28,-76.5 33.78,-615.4 142.04,-1226.7 321.65,-1816.2 -440.4,655.1 -710.49,1423.6 -776.74,2210.2 -11.84,-620.1 32.09,-1241.2 131.07,-1853.5 -89.81,273.8 -179.62,547.5 -269.43,821.3 -27.22,-164.3 -27.02,-333.2 0.58,-497.4 -27.04,131.8 -71.41,260.1 -131.62,380.4 -41.93,-503.3 -17.77,-1012.1 71.67,-1509.2 -230.53,674.5 -464.3,1384 -344.79,2086.7 -75.4,-713.8 -72.09,-1435.8 9.86,-2148.9 -115,488.1 -216.27,979.4 -303.67,1473.2 -41.52,-208 -110.25,-410.4 -203.9,-600.7 -4.53,69.1 -9.06,138.1 -13.6,207.2 -297.84,-438.8 -595.67,-877.6 -893.52,-1316.4 -141.62,-208.7 -305.56,-433.3 -551,-491.2 645.15,805.3 1106.6,1756.8 1339.45,2762 -268.97,-640.5 -757.39,-1159.2 -1235.75,-1662.9 227.95,319 423.61,661.1 583.01,1019.4 -104.44,-141.5 -233.76,-264.5 -380.24,-361.7 25.54,131.7 51.08,263.3 76.62,395 -122.65,-206.3 -245.29,-412.6 -367.94,-618.9 -44.99,122.1 43.2,249.5 126.08,349.8 636.97,771.2 1273.94,1542.4 1910.91,2313.5 -543.85,-480.3 -1166.77,-870.9 -1836.02,-1151.2 748.23,480.1 1438.89,1049.9 2052.49,1693.2 134.44,141 268.26,290.3 335.91,473 -309.78,-189 -606.85,-398.8 -888.52,-627.6 283.89,287.5 567.78,575 851.67,862.6 -383.65,-247.6 -767.3,-495.2 -1150.94,-742.9 901.65,896.7 1803.3,1793.3 2704.96,2689.9 507.03,504.2 1049.8,1091.3 1040.45,1806.3"
         style="fill:#000000;stroke:#ffffff;stroke-width:80;stroke-linecap:round;stroke-linejoin:round;stroke-miterlimit:10;stroke-dasharray:none;stroke-opacity:1"
         transform="matrix(0.13333333,0,0,-0.13333333,0,5333.3333)" />
      <path
         id="path55"
         d="m 6843.32,31205.4 c 19.63,-29.6 20.16,49.6 -11.66,33.9 -31.82,-15.7 -32.56,-61.5 -55.81,-88.3 -524.83,-604.7 -915.01,-1325.7 -1134.24,-2095.9 -17.24,397.4 -6.35,796 32.56,1191.8 -166.78,-288.7 -300.8,-596.4 -398.68,-915.2 32.58,137.3 36.92,281.2 12.68,420.2 -95.97,-135.1 -165.85,-288.6 -204.64,-449.7 17.88,248.2 35.75,496.4 53.63,744.6 -321.98,-793.2 -543.96,-1626.9 -659.01,-2475.1 -47.79,581.6 -11.71,1170.1 106.78,1741.5 -23.76,-288.4 -180.54,-545.6 -300.49,-808.9 -219.89,-482.7 -323.09,-1018.1 -298.38,-1547.9 -25.32,617.3 -17.97,1235.9 22.03,1852.4 -116.02,-341.2 -260.58,-672.8 -431.65,-990 -0.29,185.5 38.96,371 114.36,540.4 -305.45,-904.8 -460.82,-1860.1 -457.87,-2815.1 -122.85,946.1 -244.75,1916.1 -30.76,2845.8 -370.06,-744.4 -575.52,-1570 -597.47,-2400.9 -0.67,-25.1 1.3,-54.9 22.72,-67.8 21.42,-13 54.25,21.6 32.94,34.7"
         style="fill:#000000;stroke:#ffffff;stroke-width:80;stroke-linecap:round;stroke-linejoin:round;stroke-miterlimit:10;stroke-dasharray:none;stroke-opacity:1"
         transform="matrix(0.13333333,0,0,-0.13333333,0,5333.3333)" />
      <path
         id="path56"
         d="M 7264.45,31798.1 C 5941.53,31190 4720.97,30360 3669.24,29353.1 c 284.93,341.9 605.7,654 955.35,929.3 -563.81,-209 -1127.62,-418 -1691.43,-627 159.5,35.5 323.02,52.9 486.42,51.7 -309.74,-228.6 -619.47,-457.1 -929.21,-685.6 88.02,30.2 176.04,60.5 264.05,90.8 -157.96,-40.1 -315.91,-80.2 -473.87,-120.3"
         style="fill:#000000;stroke:#ffffff;stroke-width:80;stroke-linecap:round;stroke-linejoin:round;stroke-miterlimit:10;stroke-dasharray:none;stroke-opacity:1"
         transform="matrix(0.13333333,0,0,-0.13333333,0,5333.3333)" />
      <path
         id="path57"
         d="M 8820.93,33177.5 C 6889.87,34359.2 4536.7,34834.2 2298.47,34494"
         style="fill:#000000;stroke:#ffffff;stroke-width:80;stroke-linecap:round;stroke-linejoin:round;stroke-miterlimit:10;stroke-dasharray:none;stroke-opacity:1"
         transform="matrix(0.13333333,0,0,-0.13333333,0,5333.3333)" />
      <path
         id="path58"
         d="m 2969.56,34202.7 c -392.81,-287.1 -696.3,-694.8 -858.81,-1153.4 313.34,345.6 626.67,691.3 940,1037 -490.73,-854.6 -553.58,-1941.4 -164.63,-2846.8 29.03,948.2 223.42,1891.1 571.79,2773.5 -307.35,-626.9 -366.52,-1371.4 -162.05,-2039 14.32,381.5 76.5,761.2 184.61,1127.3 -7.23,-192.6 -38.86,-384.3 -93.89,-569.1 7.46,208.7 49.32,416.1 123.38,611.4 25.46,-217.6 -1.69,-441.1 -78.49,-646.2 222.25,742.1 917.82,1224.5 1567.11,1647 -221.72,-107 -362.82,-327.6 -487.01,-540.2 -254.99,-436.5 -488.17,-885.8 -698.38,-1345.5 -109,-238.4 -212.78,-512.5 -113.18,-755 230.92,573.8 474.58,1166.6 924.43,1591 233.6,220.4 519.09,391.2 703.61,654.1 -370.24,-544.3 -686.15,-1125.5 -941.51,-1732.3 190.28,329 380.57,657.9 570.85,986.9 -70.11,-209.2 -180.38,-404.8 -323.03,-573.1 69.39,78.2 138.77,156.4 208.16,234.6 7.94,-171.1 -29.99,-344.2 -108.77,-496.3 403.31,648.8 888.44,1336.5 1627.09,1531.2 -493.72,-622 -955.36,-1320.2 -1028.55,-2111 304.3,544.4 656.51,1061.9 1051.24,1544.7 -154.54,-381.5 -309.07,-763.1 -463.61,-1144.6 206.88,311.9 413.76,623.8 620.64,935.7 -35.95,-103.3 -71.89,-206.5 -107.83,-309.8 132.92,233.8 343.34,422.6 590.08,529.5 -161.24,-406.2 -322.47,-812.5 -483.71,-1218.7 283.05,321.5 595.19,617.3 931.36,882.7 -54.13,-251 -154.39,-491.9 -294.28,-707.2 55.39,168.1 145.04,324.9 261.86,457.9 16.71,-181.1 -31.81,-367.5 -134.67,-517.5 128.63,186.9 307.71,338.7 513.13,434.9 36.75,-170.8 -60.68,-360.9 -220.83,-430.8 149.46,188.6 351.51,343.9 586.1,397.4 234.58,53.5 502.1,-8.5 661.11,-189.1 159,-180.6 177.67,-482 14.02,-658.4 -58.23,35.1 -73.66,124.7 -30.55,177.3"
         style="fill:#000000;stroke:#ffffff;stroke-width:80;stroke-linecap:round;stroke-linejoin:round;stroke-miterlimit:10;stroke-dasharray:none;stroke-opacity:1"
         transform="matrix(0.13333333,0,0,-0.13333333,0,5333.3333)" />
      <path
         id="path59"
         d="m 9722.72,31895.6 c 19.14,11.4 38.29,22.9 57.43,34.3 -163.4,515 -525.94,964 -994.95,1232.2 181.3,-359 363.61,-720.4 476,-1106.5 -115.09,180.2 -233.41,364.1 -401.72,496.1 35.82,-104 56.75,-213.2 61.98,-323 -85.09,40.7 -161.36,99.8 -222.12,172"
         style="fill:#000000;stroke:#ffffff;stroke-width:80;stroke-linecap:round;stroke-linejoin:round;stroke-miterlimit:10;stroke-dasharray:none;stroke-opacity:1"
         transform="matrix(0.13333333,0,0,-0.13333333,0,5333.3333)" />
      <path
         id="path60"
         d="m 9906.6,32293 c 179.4,110.3 379.2,187.2 586.3,225.6 -105.2,-115.4 -223.7,-218.7 -352.2,-307.3 -22.4,-15.4 -46.1,-30.8 -73,-34 -55.4,-6.6 -101.93,38.7 -139.2,80.2"
         style="fill:#000000;stroke:#ffffff;stroke-width:80;stroke-linecap:round;stroke-linejoin:round;stroke-miterlimit:10;stroke-dasharray:none;stroke-opacity:1"
         transform="matrix(0.13333333,0,0,-0.13333333,0,5333.3333)" />
      <path
         id="path61"
         d="m 18269.6,3860.4 c -1171,858.7 -2403,1634.2 -3683.6,2318.7 -1423.2,760.7 -2754,1788.5 -4098.9,2680.4 -768.45,509.7 -1647.84,795.1 -2463.46,1225.4"
         style="fill:#000000;stroke:#ffffff;stroke-width:80;stroke-linecap:round;stroke-linejoin:round;stroke-miterlimit:10;stroke-dasharray:none;stroke-opacity:1"
         transform="matrix(0.13333333,0,0,-0.13333333,0,5333.3333)" />
      <path
         id="path62"
         d="m 18165.1,3535.4 c -1068.6,937.6 -2241.2,1756.5 -3489.3,2437"
         style="fill:#000000;stroke:#ffffff;stroke-width:80;stroke-linecap:round;stroke-linejoin:round;stroke-miterlimit:10;stroke-dasharray:none;stroke-opacity:1"
         transform="matrix(0.13333333,0,0,-0.13333333,0,5333.3333)" />
      <path
         id="path63"
         d="m 14395,6010.5 c -1185.3,866.2 -2405.8,1684.1 -3657.5,2451.2"
         style="fill:#000000;stroke:#ffffff;stroke-width:80;stroke-linecap:round;stroke-linejoin:round;stroke-miterlimit:10;stroke-dasharray:none;stroke-opacity:1"
         transform="matrix(0.13333333,0,0,-0.13333333,0,5333.3333)" />
      <path
         id="path64"
         d="M 10391.1,8577.5 C 9711.08,9020 9000.4,9415.3 8265.86,9759.8"
         style="fill:#000000;stroke:#ffffff;stroke-width:80;stroke-linecap:round;stroke-linejoin:round;stroke-miterlimit:10;stroke-dasharray:none;stroke-opacity:1"
         transform="matrix(0.13333333,0,0,-0.13333333,0,5333.3333)" />
      <path
         id="path65"
         d="m 8435.76,9971.3 c 14.03,35.3 28.06,70.6 42.1,105.8 -162.01,-157 -294.65,-344.2 -389.08,-549.1"
         style="fill:#000000;stroke:#ffffff;stroke-width:80;stroke-linecap:round;stroke-linejoin:round;stroke-miterlimit:10;stroke-dasharray:none;stroke-opacity:1"
         transform="matrix(0.13333333,0,0,-0.13333333,0,5333.3333)" />
      <path
         id="path66"
         d="m 8383.87,10044.7 c -491.79,136.3 -983.59,272.7 -1475.38,409 -470.69,130.5 -949.62,262.1 -1437.95,251.5"
         style="fill:#000000;stroke:#ffffff;stroke-width:80;stroke-linecap:round;stroke-linejoin:round;stroke-miterlimit:10;stroke-dasharray:none;stroke-opacity:1"
         transform="matrix(0.13333333,0,0,-0.13333333,0,5333.3333)" />
      <path
         id="path67"
         d="m 8049.44,9687 c -710.39,222.9 -1432.63,407.9 -2162.65,554.1 -161.88,32.5 -339.37,60.9 -484.43,-18"
         style="fill:#000000;stroke:#ffffff;stroke-width:80;stroke-linecap:round;stroke-linejoin:round;stroke-miterlimit:10;stroke-dasharray:none;stroke-opacity:1"
         transform="matrix(0.13333333,0,0,-0.13333333,0,5333.3333)" />
      <path
         id="path68"
         d="m 5824.87,10743.1 c -75.67,-189.5 -151.33,-378.9 -227,-568.4"
         style="fill:#000000;stroke:#ffffff;stroke-width:80;stroke-linecap:round;stroke-linejoin:round;stroke-miterlimit:10;stroke-dasharray:none;stroke-opacity:1"
         transform="matrix(0.13333333,0,0,-0.13333333,0,5333.3333)" />
      <path
         id="path69"
         d="M 6771.59,10010.3 C 8296.37,7614.5 10997.8,6008.8 13830.9,5814.3"
         style="fill:#000000;stroke:#ffffff;stroke-width:80;stroke-linecap:round;stroke-linejoin:round;stroke-miterlimit:10;stroke-dasharray:none;stroke-opacity:1"
         transform="matrix(0.13333333,0,0,-0.13333333,0,5333.3333)" />
      <path
         id="path70"
         d="m 18311.3,3829.6 c -79.2,-117.1 -158.4,-234.1 -237.5,-351.1"
         style="fill:#000000;stroke:#ffffff;stroke-width:80;stroke-linecap:round;stroke-linejoin:round;stroke-miterlimit:10;stroke-dasharray:none;stroke-opacity:1"
         transform="matrix(0.13333333,0,0,-0.13333333,0,5333.3333)" />
      <path
         id="path71"
         d="m 18343.1,7286.2 c 43.8,-15.3 97,3.6 121.3,43.1 -1438.5,-649.5 -2886.8,-1277.2 -4344.3,-1882.6"
         style="fill:#000000;stroke:#ffffff;stroke-width:80;stroke-linecap:round;stroke-linejoin:round;stroke-miterlimit:10;stroke-dasharray:none;stroke-opacity:1"
         transform="matrix(0.13333333,0,0,-0.13333333,0,5333.3333)" />
      <path
         id="path72"
         d="M 13889,5306.7 C 11904.1,4298.9 9923.56,3282.6 7947.4,2257.8"
         style="fill:#000000;stroke:#ffffff;stroke-width:80;stroke-linecap:round;stroke-linejoin:round;stroke-miterlimit:10;stroke-dasharray:none;stroke-opacity:1"
         transform="matrix(0.13333333,0,0,-0.13333333,0,5333.3333)" />
      <path
         id="path73"
         d="M 13567.7,5710.2 C 11642.8,4758.3 9730.11,3781.6 7830.37,2780.3 7768.82,2473.8 7693.05,2170.1 7603.38,1870.5"
         style="fill:#000000;stroke:#ffffff;stroke-width:80;stroke-linecap:round;stroke-linejoin:round;stroke-miterlimit:10;stroke-dasharray:none;stroke-opacity:1"
         transform="matrix(0.13333333,0,0,-0.13333333,0,5333.3333)" />
      <path
         id="path74"
         d="m 18216,7718.6 c 35,18.2 69.9,36.4 104.9,54.6 C 17302.4,7342.7 16290,6897.7 15284.2,6438.4"
         style="fill:#000000;stroke:#ffffff;stroke-width:80;stroke-linecap:round;stroke-linejoin:round;stroke-miterlimit:10;stroke-dasharray:none;stroke-opacity:1"
         transform="matrix(0.13333333,0,0,-0.13333333,0,5333.3333)" />
      <path
         id="path75"
         d="m 17987.3,3500.3 c -803.9,562.8 -1829.1,676.4 -2747.8,1021.4"
         style="fill:#000000;stroke:#ffffff;stroke-width:80;stroke-linecap:round;stroke-linejoin:round;stroke-miterlimit:10;stroke-dasharray:none;stroke-opacity:1"
         transform="matrix(0.13333333,0,0,-0.13333333,0,5333.3333)" />
      <path
         id="path76"
         d="m 16813.6,4318.9 c -603.4,297.9 -1242.1,524.2 -1898.5,672.8"
         style="fill:#000000;stroke:#ffffff;stroke-width:80;stroke-linecap:round;stroke-linejoin:round;stroke-miterlimit:10;stroke-dasharray:none;stroke-opacity:1"
         transform="matrix(0.13333333,0,0,-0.13333333,0,5333.3333)" />
      <path
         id="path77"
         d="m 15238.7,4478.3 c -380.6,278 -761.1,556 -1141.7,833.9 -51.8,37.8 -103.8,75.9 -148.4,121.9"
         style="fill:#000000;stroke:#ffffff;stroke-width:80;stroke-linecap:round;stroke-linejoin:round;stroke-miterlimit:10;stroke-dasharray:none;stroke-opacity:1"
         transform="matrix(0.13333333,0,0,-0.13333333,0,5333.3333)" />
      <path
         id="path78"
         d="m 14916.9,5073.4 c -222.1,145.6 -444.2,291.1 -666.3,436.7"
         style="fill:#000000;stroke:#ffffff;stroke-width:80;stroke-linecap:round;stroke-linejoin:round;stroke-miterlimit:10;stroke-dasharray:none;stroke-opacity:1"
         transform="matrix(0.13333333,0,0,-0.13333333,0,5333.3333)" />
      <path
         id="path79"
         d="M 12435.1,7703.8 C 11452.5,6330.3 10509.7,4928.5 9608.12,3500.6"
         style="fill:#000000;stroke:#ffffff;stroke-width:80;stroke-linecap:round;stroke-linejoin:round;stroke-miterlimit:10;stroke-dasharray:none;stroke-opacity:1"
         transform="matrix(0.13333333,0,0,-0.13333333,0,5333.3333)" />
      <path
         id="path80"
         d="m 9200.25,3593.9 c 978.45,1414.1 1927.25,2848.8 2845.35,4302.9 41,65 96.6,45.8 162.7,6.5 66.1,-39.3 106.8,-112.5 122,-187.9 39.5,-194.9 -95.8,-408.8 -288.9,-456.6"
         style="fill:#000000;stroke:#ffffff;stroke-width:80;stroke-linecap:round;stroke-linejoin:round;stroke-miterlimit:10;stroke-dasharray:none;stroke-opacity:1"
         transform="matrix(0.13333333,0,0,-0.13333333,0,5333.3333)" />
      <path
         id="path81"
         d="M 8916.49,7694.7 C 8313.1,6648 7648.67,5636.5 6927.71,4667.1"
         style="fill:#000000;stroke:#ffffff;stroke-width:80;stroke-linecap:round;stroke-linejoin:round;stroke-miterlimit:10;stroke-dasharray:none;stroke-opacity:1"
         transform="matrix(0.13333333,0,0,-0.13333333,0,5333.3333)" />
      <path
         id="path82"
         d="m 9229.98,3513 c -513.19,277.2 -1037.99,532.9 -1572.54,766.2 -267.35,116.7 -537.49,226.1 -808.83,333.1 -160.84,63.4 -390.74,274.6 -90.45,272.5 251.77,-1.7 623.63,-227.7 858.15,-321.1 580.31,-231.2 1150.47,-487.9 1708.27,-769.1"
         style="fill:#000000;stroke:#ffffff;stroke-width:80;stroke-linecap:round;stroke-linejoin:round;stroke-miterlimit:10;stroke-dasharray:none;stroke-opacity:1"
         transform="matrix(0.13333333,0,0,-0.13333333,0,5333.3333)" />
      <path
         id="path83"
         d="M 8683.57,7755.5 C 8081.54,6931.9 7479.5,6108.2 6877.47,5284.5"
         style="fill:#000000;stroke:#ffffff;stroke-width:80;stroke-linecap:round;stroke-linejoin:round;stroke-miterlimit:10;stroke-dasharray:none;stroke-opacity:1"
         transform="matrix(0.13333333,0,0,-0.13333333,0,5333.3333)" />
      <path
         id="path84"
         d="M 10411.3,5596.6 C 9539.56,5166.6 8661.84,4748.8 7778.42,4343.4"
         style="fill:#000000;stroke:#ffffff;stroke-width:80;stroke-linecap:round;stroke-linejoin:round;stroke-miterlimit:10;stroke-dasharray:none;stroke-opacity:1"
         transform="matrix(0.13333333,0,0,-0.13333333,0,5333.3333)" />
      <path
         id="path85"
         d="M 10995.8,6176.6 C 10003.2,5740.7 9003.75,5320.5 7997.91,4916.1"
         style="fill:#000000;stroke:#ffffff;stroke-width:80;stroke-linecap:round;stroke-linejoin:round;stroke-miterlimit:10;stroke-dasharray:none;stroke-opacity:1"
         transform="matrix(0.13333333,0,0,-0.13333333,0,5333.3333)" />
      <path
         id="path86"
         d="m 11683.6,6168.9 c -136,-104.8 -288.4,-188.1 -450,-246.1"
         style="fill:#000000;stroke:#ffffff;stroke-width:80;stroke-linecap:round;stroke-linejoin:round;stroke-miterlimit:10;stroke-dasharray:none;stroke-opacity:1"
         transform="matrix(0.13333333,0,0,-0.13333333,0,5333.3333)" />
      <path
         id="path87"
         d="M 7220.99,4225.5 C 6846.25,4048.3 6471.5,3871 6096.76,3693.8"
         style="fill:#000000;stroke:#ffffff;stroke-width:80;stroke-linecap:round;stroke-linejoin:round;stroke-miterlimit:10;stroke-dasharray:none;stroke-opacity:1"
         transform="matrix(0.13333333,0,0,-0.13333333,0,5333.3333)" />
      <path
         id="path88"
         d="m 6924.92,4431.1 c -489.69,-243 -985.93,-472.7 -1487.99,-689"
         style="fill:#000000;stroke:#ffffff;stroke-width:80;stroke-linecap:round;stroke-linejoin:round;stroke-miterlimit:10;stroke-dasharray:none;stroke-opacity:1"
         transform="matrix(0.13333333,0,0,-0.13333333,0,5333.3333)" />
      <path
         id="path89"
         d="M 7617.39,2420.7 C 6924.5,2837.1 6190.61,3185.3 5429.79,3458.5"
         style="fill:#000000;stroke:#ffffff;stroke-width:80;stroke-linecap:round;stroke-linejoin:round;stroke-miterlimit:10;stroke-dasharray:none;stroke-opacity:1"
         transform="matrix(0.13333333,0,0,-0.13333333,0,5333.3333)" />
      <path
         id="path90"
         d="m 7626.3,2754.9 c -454.67,238.3 -915.62,464.6 -1382.19,678.7"
         style="fill:#000000;stroke:#ffffff;stroke-width:80;stroke-linecap:round;stroke-linejoin:round;stroke-miterlimit:10;stroke-dasharray:none;stroke-opacity:1"
         transform="matrix(0.13333333,0,0,-0.13333333,0,5333.3333)" />
      <path
         id="path91"
         d="m 5554.42,3766.9 c -6.71,-92.9 -13.41,-185.7 -20.12,-278.6 -20.63,-0.6 -40.17,16.9 -41.77,37.5"
         style="fill:#000000;stroke:#ffffff;stroke-width:80;stroke-linecap:round;stroke-linejoin:round;stroke-miterlimit:10;stroke-dasharray:none;stroke-opacity:1"
         transform="matrix(0.13333333,0,0,-0.13333333,0,5333.3333)" />
      <path
         id="path92"
         d="m 6155.42,3519 c -157.72,42.2 -306.62,117 -434.54,218.4"
         style="fill:#000000;stroke:#ffffff;stroke-width:80;stroke-linecap:round;stroke-linejoin:round;stroke-miterlimit:10;stroke-dasharray:none;stroke-opacity:1"
         transform="matrix(0.13333333,0,0,-0.13333333,0,5333.3333)" />
      <path
         id="path93"
         d="m 18268.8,7777.6 c -244.8,-50.1 -495,33.7 -730.9,116.4 -170.4,59.7 -340.8,119.4 -511.2,179.2 -465.2,163 -985,324.9 -1436.5,127 -398.5,-174.7 -616.9,-578.7 -932.4,-878.4 -127.1,-120.7 -262.6,-232.5 -405.2,-334.5 -197.4,-141.1 -451.3,-267 -673.7,-169.8"
         style="fill:#000000;stroke:#ffffff;stroke-width:80;stroke-linecap:round;stroke-linejoin:round;stroke-miterlimit:10;stroke-dasharray:none;stroke-opacity:1"
         transform="matrix(0.13333333,0,0,-0.13333333,0,5333.3333)" />
      <path
         id="path94"
         d="m 13519.4,6528.3 c -1.8,21.6 -3.6,43.1 -5.4,64.6 -333.5,-156.6 -714.2,-210.5 -1078,-152.8 -105.1,16.7 -208.9,42.5 -314.9,50.5 -94.1,7.2 -189.2,0.4 -282.7,12.7 -93.6,12.2 -189.3,47 -248.8,120.2"
         style="fill:#000000;stroke:#ffffff;stroke-width:80;stroke-linecap:round;stroke-linejoin:round;stroke-miterlimit:10;stroke-dasharray:none;stroke-opacity:1"
         transform="matrix(0.13333333,0,0,-0.13333333,0,5333.3333)" />
      <path
         id="path95"
         d="m 11162.2,6807.5 c -436.6,162 -785.9,494.1 -1109.6,828.9 -606.85,627.8 -1171.64,1296.2 -1689.28,1999.3"
         style="fill:#000000;stroke:#ffffff;stroke-width:80;stroke-linecap:round;stroke-linejoin:round;stroke-miterlimit:10;stroke-dasharray:none;stroke-opacity:1"
         transform="matrix(0.13333333,0,0,-0.13333333,0,5333.3333)" />
      <path
         id="path96"
         d="m 17590,7911.3 c 11.9,-25.9 -21.7,-48.2 -48.5,-57.8 -322.3,-115.7 -602,-346.1 -777.3,-640.3"
         style="fill:#000000;stroke:#ffffff;stroke-width:80;stroke-linecap:round;stroke-linejoin:round;stroke-miterlimit:10;stroke-dasharray:none;stroke-opacity:1"
         transform="matrix(0.13333333,0,0,-0.13333333,0,5333.3333)" />
      <path
         id="path97"
         d="m 17147.9,7997.4 c -413.7,-261.8 -771.8,-600.8 -1154.1,-906.7 -382.3,-305.8 -802.4,-584.9 -1279.2,-696"
         style="fill:#000000;stroke:#ffffff;stroke-width:80;stroke-linecap:round;stroke-linejoin:round;stroke-miterlimit:10;stroke-dasharray:none;stroke-opacity:1"
         transform="matrix(0.13333333,0,0,-0.13333333,0,5333.3333)" />
      <path
         id="path98"
         d="M 16421.8,8161.9 C 15999.5,7919.3 15666,7552.2 15305.2,7225.2 14944.4,6898.2 14526.3,6597 14043,6537.5"
         style="fill:#000000;stroke:#ffffff;stroke-width:80;stroke-linecap:round;stroke-linejoin:round;stroke-miterlimit:10;stroke-dasharray:none;stroke-opacity:1"
         transform="matrix(0.13333333,0,0,-0.13333333,0,5333.3333)" />
      <path
         id="path99"
         d="m 15340.5,8682.4 c 0,-6.2 0,-12.3 0,-18.5"
         style="fill:#000000;stroke:#ffffff;stroke-width:80;stroke-linecap:round;stroke-linejoin:round;stroke-miterlimit:10;stroke-dasharray:none;stroke-opacity:1"
         transform="matrix(0.13333333,0,0,-0.13333333,0,5333.3333)" />
      <path
         id="path100"
         d="m 16112.3,8209.9 c -361.2,-181.6 -644.2,-483.2 -943.8,-754.7 -299.6,-271.4 -643.5,-526.4 -1044.6,-577.1"
         style="fill:#000000;stroke:#ffffff;stroke-width:80;stroke-linecap:round;stroke-linejoin:round;stroke-miterlimit:10;stroke-dasharray:none;stroke-opacity:1"
         transform="matrix(0.13333333,0,0,-0.13333333,0,5333.3333)" />
      <path
         id="path101"
         d="m 13956.7,9489.5 c 12.5,-11.9 25.1,-23.9 37.7,-35.9"
         style="fill:#000000;stroke:#ffffff;stroke-width:80;stroke-linecap:round;stroke-linejoin:round;stroke-miterlimit:10;stroke-dasharray:none;stroke-opacity:1"
         transform="matrix(0.13333333,0,0,-0.13333333,0,5333.3333)" />
      <path
         id="path102"
         d="M 16879.4,8074.3 C 16415.2,7760.5 16014.8,7361.1 15561,7032.4 15107.1,6703.8 14572.7,6441.1 14012.8,6463"
         style="fill:#000000;stroke:#ffffff;stroke-width:80;stroke-linecap:round;stroke-linejoin:round;stroke-miterlimit:10;stroke-dasharray:none;stroke-opacity:1"
         transform="matrix(0.13333333,0,0,-0.13333333,0,5333.3333)" />
      <path
         id="path103"
         d="m 7976.84,10079.3 c 11.99,-0.3 7.3,22.3 -4.71,22.2 -12,-0.2 -19.94,-12.2 -25.66,-22.7 -61.57,-113.9 -120.89,-228.9 -177.93,-345.1"
         style="fill:#000000;stroke:#ffffff;stroke-width:80;stroke-linecap:round;stroke-linejoin:round;stroke-miterlimit:10;stroke-dasharray:none;stroke-opacity:1"
         transform="matrix(0.13333333,0,0,-0.13333333,0,5333.3333)" />
      <path
         id="path104"
         d="m 7588.76,10229 c -97.02,-96.5 -178.22,-208.9 -239.36,-331.4"
         style="fill:#000000;stroke:#ffffff;stroke-width:80;stroke-linecap:round;stroke-linejoin:round;stroke-miterlimit:10;stroke-dasharray:none;stroke-opacity:1"
         transform="matrix(0.13333333,0,0,-0.13333333,0,5333.3333)" />
      <path
         id="path105"
         d="m 6994.51,10397.4 c -58.24,-112.1 -116.47,-224.3 -174.71,-336.4"
         style="fill:#000000;stroke:#ffffff;stroke-width:80;stroke-linecap:round;stroke-linejoin:round;stroke-miterlimit:10;stroke-dasharray:none;stroke-opacity:1"
         transform="matrix(0.13333333,0,0,-0.13333333,0,5333.3333)" />
      <path
         id="path106"
         d="m 6395.15,10556.4 c -114.91,-90.7 -184.31,-236.4 -182.37,-382.8"
         style="fill:#000000;stroke:#ffffff;stroke-width:80;stroke-linecap:round;stroke-linejoin:round;stroke-miterlimit:10;stroke-dasharray:none;stroke-opacity:1"
         transform="matrix(0.13333333,0,0,-0.13333333,0,5333.3333)" />
      <path
         id="path107"
         d="m 6595,10431.1 c -85.95,-96 -139.09,-220.8 -148.67,-349.3"
         style="fill:#000000;stroke:#ffffff;stroke-width:80;stroke-linecap:round;stroke-linejoin:round;stroke-miterlimit:10;stroke-dasharray:none;stroke-opacity:1"
         transform="matrix(0.13333333,0,0,-0.13333333,0,5333.3333)" />
      <path
         id="path108"
         d="M 7992.67,9620.8 C 8642.33,8440.1 9637.84,7452.4 10823.6,6812"
         style="fill:#000000;stroke:#ffffff;stroke-width:80;stroke-linecap:round;stroke-linejoin:round;stroke-miterlimit:10;stroke-dasharray:none;stroke-opacity:1"
         transform="matrix(0.13333333,0,0,-0.13333333,0,5333.3333)" />
      <path
         id="path109"
         d="M 7575.64,9798.4 C 8210.93,8629.5 9196.53,7653.9 10371.9,7030.5"
         style="fill:#000000;stroke:#ffffff;stroke-width:80;stroke-linecap:round;stroke-linejoin:round;stroke-miterlimit:10;stroke-dasharray:none;stroke-opacity:1"
         transform="matrix(0.13333333,0,0,-0.13333333,0,5333.3333)" />
      <path
         id="path110"
         d="M 7195.73,9910.6 C 7548,9468.7 7922.21,9044.3 8316.53,8639.5 8628,8319.7 8962.11,8005.4 9373.9,7833.1"
         style="fill:#000000;stroke:#ffffff;stroke-width:80;stroke-linecap:round;stroke-linejoin:round;stroke-miterlimit:10;stroke-dasharray:none;stroke-opacity:1"
         transform="matrix(0.13333333,0,0,-0.13333333,0,5333.3333)" />
      <path
         id="path111"
         d="m 7848.7,4903 c -147.67,-66.7 -295.35,-133.4 -443.01,-200.1"
         style="fill:#000000;stroke:#ffffff;stroke-width:80;stroke-linecap:round;stroke-linejoin:round;stroke-miterlimit:10;stroke-dasharray:none;stroke-opacity:1"
         transform="matrix(0.13333333,0,0,-0.13333333,0,5333.3333)" />
      <path
         id="path112"
         d="m 37369.7,15250.7 c -1987.1,483.2 -4072.3,4.4 -6115.2,98.7 -766.9,35.4 -1528.8,151.9 -2296.2,174.1 -676.3,19.6 -1352.3,-34.3 -2027.4,-80.3 -3389.3,-231.4 -6794.3,-268.9 -10183.6,-37.8"
         style="fill:#000000;stroke:#ffffff;stroke-width:80;stroke-linecap:round;stroke-linejoin:round;stroke-miterlimit:10;stroke-dasharray:none;stroke-opacity:1"
         transform="matrix(0.13333333,0,0,-0.13333333,0,5333.3333)" />
      <path
         id="path113"
         d="m 14793.8,15305.2 c -1833.6,12.8 -3667.1,25.6 -5500.6,38.4"
         style="fill:#000000;stroke:#ffffff;stroke-width:80;stroke-linecap:round;stroke-linejoin:round;stroke-miterlimit:10;stroke-dasharray:none;stroke-opacity:1"
         transform="matrix(0.13333333,0,0,-0.13333333,0,5333.3333)" />
      <path
         id="path114"
         d="M 38166.4,6391.7 C 36692,7015.1 35113.9,7392.8 33517,7504.3 c -111.9,7.8 -228.9,13.5 -331.7,-31.4 -319,-139.3 -270.3,-601.3 -167.7,-934 -637,125 -1250.3,352.5 -1887.2,477.5 -636.9,124.9 -1324.1,139.7 -1907.2,-145.5 -306.4,-149.9 -571.4,-376.5 -882.6,-516.3 -617.1,-277.5 -1333.9,-181.9 -1992.2,-25.7 -658.3,156.3 -1321.6,369.7 -1995.7,311.3 -417.7,-36.1 -820.2,-175.9 -1236.2,-228.3 -1350.8,-170.1 -2728.9,588 -4048.7,253.7"
         style="fill:#000000;stroke:#ffffff;stroke-width:80;stroke-linecap:round;stroke-linejoin:round;stroke-miterlimit:10;stroke-dasharray:none;stroke-opacity:1"
         transform="matrix(0.13333333,0,0,-0.13333333,0,5333.3333)" />
      <path
         id="path115"
         d="m 7058.62,6548.8 c -505.38,173 -1058.7,340.6 -1562.6,163.3 -100.79,-35.4 -197.08,-84.2 -300.61,-110.6 -176.71,-45.1 -362.61,-22.5 -544.11,-4.6 -752.06,73.9 -1512.56,61.7 -2261.85,-36.4"
         style="fill:#000000;stroke:#ffffff;stroke-width:80;stroke-linecap:round;stroke-linejoin:round;stroke-miterlimit:10;stroke-dasharray:none;stroke-opacity:1"
         transform="matrix(0.13333333,0,0,-0.13333333,0,5333.3333)" />
      <path
         id="path116"
         d="m 25944,6800.4 c 72.8,-56.3 145.6,-112.7 218.4,-169 122.6,-94.9 247.7,-191.2 393.5,-243.8 199.4,-72 429.7,-53.3 614.9,49.9 -35.6,93.7 -125.4,158.4 -220.8,188.8 -95.5,30.5 -197.4,31.6 -297.6,32.6"
         style="fill:#000000;stroke:#ffffff;stroke-width:80;stroke-linecap:round;stroke-linejoin:round;stroke-miterlimit:10;stroke-dasharray:none;stroke-opacity:1"
         transform="matrix(0.13333333,0,0,-0.13333333,0,5333.3333)" />
      <path
         id="path117"
         d="m 6103.57,6520 c 154.99,34.4 320.88,17.7 465.91,-46.9 88.91,-39.6 178.86,-98.2 274.99,-82.9 152.75,24.3 217.96,213 352.65,289"
         style="fill:#000000;stroke:#ffffff;stroke-width:80;stroke-linecap:round;stroke-linejoin:round;stroke-miterlimit:10;stroke-dasharray:none;stroke-opacity:1"
         transform="matrix(0.13333333,0,0,-0.13333333,0,5333.3333)" />
      <path
         id="path118"
         d="m 8726.67,6429.2 c 191.5,-115.6 439.23,116 651.51,45.5 87.83,-29.2 151.24,-105.3 232.14,-150.3 128.72,-71.5 301.74,-52.5 411.78,45.4 88.8,79 141.9,204.3 253.5,245.4"
         style="fill:#000000;stroke:#ffffff;stroke-width:80;stroke-linecap:round;stroke-linejoin:round;stroke-miterlimit:10;stroke-dasharray:none;stroke-opacity:1"
         transform="matrix(0.13333333,0,0,-0.13333333,0,5333.3333)" />
      <path
         id="path119"
         d="m 9469.96,5917.9 c -51.42,164.2 -244.86,242.1 -416.92,240.9 -172.05,-1.2 -339.56,-58.4 -511.49,-65.1 -156.46,-6.1 -314.38,30.7 -452.02,105.4"
         style="fill:#000000;stroke:#ffffff;stroke-width:80;stroke-linecap:round;stroke-linejoin:round;stroke-miterlimit:10;stroke-dasharray:none;stroke-opacity:1"
         transform="matrix(0.13333333,0,0,-0.13333333,0,5333.3333)" />
      <path
         id="path120"
         d="m 6688.11,6119.7 c -27.23,56.4 -102.1,74.2 -163.1,60 -61.01,-14.1 -113.34,-51.8 -168.67,-81.2 -134.84,-71.4 -294.95,-93.9 -444.26,-62.4 -187.9,39.7 -357.2,161 -549.19,165.3"
         style="fill:#000000;stroke:#ffffff;stroke-width:80;stroke-linecap:round;stroke-linejoin:round;stroke-miterlimit:10;stroke-dasharray:none;stroke-opacity:1"
         transform="matrix(0.13333333,0,0,-0.13333333,0,5333.3333)" />
      <path
         id="path121"
         d="m 26347.2,6167.5 c 215.7,30.1 439.4,-0.1 639.4,-86.4 97.7,-42.2 191,-97.8 295,-120.3 160.7,-34.9 332.1,15.1 466.3,110 134.2,95 234.5,231.4 311.6,376.5 279.3,136.4 674.9,169.6 945.3,16.1 225.5,-128 416.8,-353 675.9,-362.6 174.3,-6.4 333.3,88.9 491.7,161.8 416.2,191.5 896.9,239.2 1342.6,133.2"
         style="fill:#000000;stroke:#ffffff;stroke-width:80;stroke-linecap:round;stroke-linejoin:round;stroke-miterlimit:10;stroke-dasharray:none;stroke-opacity:1"
         transform="matrix(0.13333333,0,0,-0.13333333,0,5333.3333)" />
      <path
         id="path122"
         d="m 30038.5,6529.3 c 224.5,93.5 449.1,187 673.7,280.4 121.4,50.6 247.5,102 379,97.5 157,-5.4 299.2,-89.6 432.1,-173.4 283.5,-178.9 560.9,-367.5 831.6,-565.4"
         style="fill:#000000;stroke:#ffffff;stroke-width:80;stroke-linecap:round;stroke-linejoin:round;stroke-miterlimit:10;stroke-dasharray:none;stroke-opacity:1"
         transform="matrix(0.13333333,0,0,-0.13333333,0,5333.3333)" />
      <path
         id="path123"
         d="m 25702.5,5958.3 c -319.1,374.7 -883.5,517 -1342.1,338.3 -139.2,-54.2 -267.8,-134.3 -409.6,-181.3 -331.6,-109.6 -695.7,-26 -1022.8,96.4 -327.1,122.5 -644.4,284.4 -989.9,335.9 -785.7,117.3 -1639.8,-344.8 -2352.6,6"
         style="fill:#000000;stroke:#ffffff;stroke-width:80;stroke-linecap:round;stroke-linejoin:round;stroke-miterlimit:10;stroke-dasharray:none;stroke-opacity:1"
         transform="matrix(0.13333333,0,0,-0.13333333,0,5333.3333)" />
      <path
         id="path124"
         d="m 4960.02,6265.3 c -225.63,126.7 -489.45,184.3 -747.34,163 -208.93,-17.1 -410.73,-84.2 -618.66,-110.9 -313.42,-40.3 -638.4,13.9 -921.75,153.8"
         style="fill:#000000;stroke:#ffffff;stroke-width:80;stroke-linecap:round;stroke-linejoin:round;stroke-miterlimit:10;stroke-dasharray:none;stroke-opacity:1"
         transform="matrix(0.13333333,0,0,-0.13333333,0,5333.3333)" />
      <path
         id="path125"
         d="m 32711.1,6422.1 c 222.6,-44.2 449.1,-68.8 676.1,-73.3 118.2,-2.3 249.1,5.8 333,89.1 84,83.2 63,264 -54,280.7 479.1,102.4 971.7,-41.9 1446.9,-161.1 475.3,-119.2 993.4,-211.2 1442.2,-14.7 62.4,27.4 124.9,60.6 192.9,63.2 53.1,2 104.8,-14.8 155.2,-31.5 204.3,-67.5 408.6,-135 612.9,-202.5"
         style="fill:#000000;stroke:#ffffff;stroke-width:80;stroke-linecap:round;stroke-linejoin:round;stroke-miterlimit:10;stroke-dasharray:none;stroke-opacity:1"
         transform="matrix(0.13333333,0,0,-0.13333333,0,5333.3333)" />
      <path
         id="path126"
         d="m 23631.8,7806.9 c 1033.6,-308.4 2128.9,358.1 3199.6,227 436,-53.4 843.9,-236.9 1244.1,-418.2"
         style="fill:#000000;stroke:#ffffff;stroke-width:80;stroke-linecap:round;stroke-linejoin:round;stroke-miterlimit:10;stroke-dasharray:none;stroke-opacity:1"
         transform="matrix(0.13333333,0,0,-0.13333333,0,5333.3333)" />
      <path
         id="path127"
         d="m 21869.7,8090 c -168.1,117.8 -344.4,239 -547.5,268.9 -140.6,20.8 -283.5,-4 -424.2,-24.8 -413.1,-60.9 -831.5,-86.7 -1249,-77"
         style="fill:#000000;stroke:#ffffff;stroke-width:80;stroke-linecap:round;stroke-linejoin:round;stroke-miterlimit:10;stroke-dasharray:none;stroke-opacity:1"
         transform="matrix(0.13333333,0,0,-0.13333333,0,5333.3333)" />
      <path
         id="path128"
         d="m 30371.3,8758 c 466.4,135.2 963.3,39.9 1446.3,-9.3 483.1,-49.2 1014.6,-36.8 1393.9,266.2"
         style="fill:#000000;stroke:#ffffff;stroke-width:80;stroke-linecap:round;stroke-linejoin:round;stroke-miterlimit:10;stroke-dasharray:none;stroke-opacity:1"
         transform="matrix(0.13333333,0,0,-0.13333333,0,5333.3333)" />
      <path
         id="path129"
         d="m 25406.8,9704 c -365.2,46.1 -739.7,17.7 -1093.7,-83"
         style="fill:#000000;stroke:#ffffff;stroke-width:80;stroke-linecap:round;stroke-linejoin:round;stroke-miterlimit:10;stroke-dasharray:none;stroke-opacity:1"
         transform="matrix(0.13333333,0,0,-0.13333333,0,5333.3333)" />
      <path
         id="path130"
         d="m 18299.1,9917.9 c -510,-49.3 -1028,-16.3 -1527.7,97.5"
         style="fill:#000000;stroke:#ffffff;stroke-width:80;stroke-linecap:round;stroke-linejoin:round;stroke-miterlimit:10;stroke-dasharray:none;stroke-opacity:1"
         transform="matrix(0.13333333,0,0,-0.13333333,0,5333.3333)" />
      <path
         id="path131"
         d="m 12595.2,9761.3 c -59.4,0 -118.8,0 -178.2,0"
         style="fill:#000000;stroke:#ffffff;stroke-width:80;stroke-linecap:round;stroke-linejoin:round;stroke-miterlimit:10;stroke-dasharray:none;stroke-opacity:1"
         transform="matrix(0.13333333,0,0,-0.13333333,0,5333.3333)" />
      <path
         id="path132"
         d="m 6186.14,8271.9 c -185.64,108.3 -413.28,106.6 -628.02,97.8 -425.28,-17.6 -863.39,-49.7 -1265.59,89.6"
         style="fill:#000000;stroke:#ffffff;stroke-width:80;stroke-linecap:round;stroke-linejoin:round;stroke-miterlimit:10;stroke-dasharray:none;stroke-opacity:1"
         transform="matrix(0.13333333,0,0,-0.13333333,0,5333.3333)" />
      <path
         id="path133"
         d="m 12468.3,11077.3 c 479.1,105 970.7,-52.6 1450.1,-156.2 479.4,-103.6 1026.8,-139.2 1414.3,161.4"
         style="fill:#000000;stroke:#ffffff;stroke-width:80;stroke-linecap:round;stroke-linejoin:round;stroke-miterlimit:10;stroke-dasharray:none;stroke-opacity:1"
         transform="matrix(0.13333333,0,0,-0.13333333,0,5333.3333)" />
      <path
         id="path134"
         d="m 21277.5,10438.2 c 406.6,41.6 815.2,64 1224,67.3"
         style="fill:#000000;stroke:#ffffff;stroke-width:80;stroke-linecap:round;stroke-linejoin:round;stroke-miterlimit:10;stroke-dasharray:none;stroke-opacity:1"
         transform="matrix(0.13333333,0,0,-0.13333333,0,5333.3333)" />
      <path
         id="path135"
         d="m 27240.3,10397 c 298.9,-54.9 600.7,-109.9 904.4,-100 303.8,9.9 614,90.2 851.2,280.2"
         style="fill:#000000;stroke:#ffffff;stroke-width:80;stroke-linecap:round;stroke-linejoin:round;stroke-miterlimit:10;stroke-dasharray:none;stroke-opacity:1"
         transform="matrix(0.13333333,0,0,-0.13333333,0,5333.3333)" />
      <path
         id="path136"
         d="m 33706.2,10117.8 c 67.9,8.5 135.8,17 203.7,25.5 252.2,31.5 553.5,-73.2 806.5,-98.2 253,-25.1 532.6,7 715.2,183.9"
         style="fill:#000000;stroke:#ffffff;stroke-width:80;stroke-linecap:round;stroke-linejoin:round;stroke-miterlimit:10;stroke-dasharray:none;stroke-opacity:1"
         transform="matrix(0.13333333,0,0,-0.13333333,0,5333.3333)" />
      <path
         id="path137"
         d="m 35692.5,11391.1 c 246.3,-10.4 493.4,-1.8 738.5,25.5"
         style="fill:#000000;stroke:#ffffff;stroke-width:80;stroke-linecap:round;stroke-linejoin:round;stroke-miterlimit:10;stroke-dasharray:none;stroke-opacity:1"
         transform="matrix(0.13333333,0,0,-0.13333333,0,5333.3333)" />
      <path
         id="path138"
         d="m 25328,12307.8 c -135.8,25.5 -271.6,51 -407.5,76.4"
         style="fill:#000000;stroke:#ffffff;stroke-width:80;stroke-linecap:round;stroke-linejoin:round;stroke-miterlimit:10;stroke-dasharray:none;stroke-opacity:1"
         transform="matrix(0.13333333,0,0,-0.13333333,0,5333.3333)" />
      <path
         id="path139"
         d="m 18872,6411.3 c -42.8,56.4 -107,92.1 -171.6,120.9 -220.1,97.8 -468.4,131.4 -706.6,95.5 -148.9,-22.5 -293.3,-71.3 -443.1,-85.9 -149.8,-14.7 -313.7,10.7 -421.8,115.4"
         style="fill:#000000;stroke:#ffffff;stroke-width:80;stroke-linecap:butt;stroke-linejoin:miter;stroke-miterlimit:10;stroke-dasharray:none;stroke-opacity:1"
         transform="matrix(0.13333333,0,0,-0.13333333,0,5333.3333)" />
      <path
         id="path140"
         d="m 19642.4,11501.6 c -212.3,187.7 -529.9,180.4 -810.9,143.3 -281,-37.1 -581.5,-90.3 -836.3,33.8"
         style="fill:#000000;stroke:#ffffff;stroke-width:80;stroke-linecap:butt;stroke-linejoin:miter;stroke-miterlimit:10;stroke-dasharray:none;stroke-opacity:1"
         transform="matrix(0.13333333,0,0,-0.13333333,0,5333.3333)" />
      <path
         id="path141"
         d="m 14112.8,3170.4 c 32.2,35.4 89.5,-22.8 79.6,-69.7 -12.3,-57.9 -78.2,-98.3 -135.4,-82.9 -57.2,15.3 -93.9,83.3 -75.5,139.6 116.2,-0.7 232.3,-15.8 344.9,-44.7"
         style="fill:#000000;stroke:#ffffff;stroke-width:80;stroke-linecap:butt;stroke-linejoin:miter;stroke-miterlimit:10;stroke-dasharray:none;stroke-opacity:1"
         transform="matrix(0.13333333,0,0,-0.13333333,0,5333.3333)" />
      <path
         id="path142"
         d="m 25149.7,5228.4 c 0,34 0,67.9 0,101.9"
         style="fill:#000000;stroke:#ffffff;stroke-width:80;stroke-linecap:butt;stroke-linejoin:miter;stroke-miterlimit:10;stroke-dasharray:none;stroke-opacity:1"
         transform="matrix(0.13333333,0,0,-0.13333333,0,5333.3333)" />
      <path
         id="path143"
         d="m 30585.3,11530.6 c -192.5,202.6 -476.4,314.9 -755.4,298.7 -237,-13.8 -459.8,-113.8 -692.2,-162.3 -232.5,-48.4 -504.8,-32.2 -665.2,142.9"
         style="fill:#000000;stroke:#ffffff;stroke-width:80;stroke-linecap:butt;stroke-linejoin:miter;stroke-miterlimit:10;stroke-dasharray:none;stroke-opacity:1"
         transform="matrix(0.13333333,0,0,-0.13333333,0,5333.3333)" />
      <path
         id="path144"
         d="m 21482.7,12664.4 c -289.2,-20.6 -581,-3.4 -865.8,50.9"
         style="fill:#000000;stroke:#ffffff;stroke-width:80;stroke-linecap:butt;stroke-linejoin:miter;stroke-miterlimit:10;stroke-dasharray:none;stroke-opacity:1"
         transform="matrix(0.13333333,0,0,-0.13333333,0,5333.3333)" />
      <path
         id="path145"
         d="m 17257.5,12733.4 c -255.9,29.7 -518.3,2.6 -762.8,-78.7"
         style="fill:#000000;stroke:#ffffff;stroke-width:80;stroke-linecap:butt;stroke-linejoin:miter;stroke-miterlimit:10;stroke-dasharray:none;stroke-opacity:1"
         transform="matrix(0.13333333,0,0,-0.13333333,0,5333.3333)" />
      <path
         id="path146"
         d="m 13079.1,12256.9 c -118.9,0 -237.7,0 -356.5,0"
         style="fill:#000000;stroke:#ffffff;stroke-width:80;stroke-linecap:butt;stroke-linejoin:miter;stroke-miterlimit:10;stroke-dasharray:none;stroke-opacity:1"
         transform="matrix(0.13333333,0,0,-0.13333333,0,5333.3333)" />
      <path
         id="path147"
         d="m 7884.11,15321.3 c -376.04,0 -752.09,0 -1128.13,0"
         style="fill:#000000;stroke:#ffffff;stroke-width:80;stroke-linecap:butt;stroke-linejoin:miter;stroke-miterlimit:10;stroke-dasharray:none;stroke-opacity:1"
         transform="matrix(0.13333333,0,0,-0.13333333,0,5333.3333)" />
      <path
         id="path148"
         d="m 32126.8,12304.3 c 387.6,-55.5 781,-70.2 1171.7,-43.9"
         style="fill:#000000;stroke:#ffffff;stroke-width:80;stroke-linecap:butt;stroke-linejoin:miter;stroke-miterlimit:10;stroke-dasharray:none;stroke-opacity:1"
         transform="matrix(0.13333333,0,0,-0.13333333,0,5333.3333)" />
      <path
         id="path149"
         d="m 31261.7,13532.8 c 186.4,-20.9 372.7,-41.7 559,-62.6"
         style="fill:#000000;stroke:#ffffff;stroke-width:80;stroke-linecap:butt;stroke-linejoin:miter;stroke-miterlimit:10;stroke-dasharray:none;stroke-opacity:1"
         transform="matrix(0.13333333,0,0,-0.13333333,0,5333.3333)" />
      <path
         id="path150"
         d="m 18171.9,14187.5 c -288.6,17.3 -577.2,34.7 -865.8,52"
         style="fill:#000000;stroke:#ffffff;stroke-width:80;stroke-linecap:butt;stroke-linejoin:miter;stroke-miterlimit:10;stroke-dasharray:none;stroke-opacity:1"
         transform="matrix(0.13333333,0,0,-0.13333333,0,5333.3333)" />
      <path
         id="path151"
         d="m 23469,13071.8 c 169.8,34 339.5,67.9 509.3,101.9"
         style="fill:#000000;stroke:#ffffff;stroke-width:80;stroke-linecap:butt;stroke-linejoin:miter;stroke-miterlimit:10;stroke-dasharray:none;stroke-opacity:1"
         transform="matrix(0.13333333,0,0,-0.13333333,0,5333.3333)" />
      <path
         id="path152"
         d="m 26527.1,13688.2 c 263.3,-109.4 582.4,-71.5 812.8,96.4"
         style="fill:#000000;stroke:#ffffff;stroke-width:80;stroke-linecap:butt;stroke-linejoin:miter;stroke-miterlimit:10;stroke-dasharray:none;stroke-opacity:1"
         transform="matrix(0.13333333,0,0,-0.13333333,0,5333.3333)" />
      <path
         id="path153"
         d="m 28562.1,14192.3 c 135.8,-17 271.6,-34 407.5,-50.9"
         style="fill:#000000;stroke:#ffffff;stroke-width:80;stroke-linecap:butt;stroke-linejoin:miter;stroke-miterlimit:10;stroke-dasharray:none;stroke-opacity:1"
         transform="matrix(0.13333333,0,0,-0.13333333,0,5333.3333)" />
      <path
         id="path154"
         d="m 35639.3,13282.2 c -177.8,-58.5 -388.5,1.2 -509.2,144.4"
         style="fill:#000000;stroke:#ffffff;stroke-width:80;stroke-linecap:butt;stroke-linejoin:miter;stroke-miterlimit:10;stroke-dasharray:none;stroke-opacity:1"
         transform="matrix(0.13333333,0,0,-0.13333333,0,5333.3333)" />
      <path
         id="path155"
         d="m 34877.6,14396 c -169.8,0 -339.6,0 -509.3,0"
         style="fill:#000000;stroke:#ffffff;stroke-width:80;stroke-linecap:butt;stroke-linejoin:miter;stroke-miterlimit:10;stroke-dasharray:none;stroke-opacity:1"
         transform="matrix(0.13333333,0,0,-0.13333333,0,5333.3333)" />
      <path
         id="path156"
         d="m 20985.1,14407.1 c -105.1,111.3 -267.8,165 -418.5,138"
         style="fill:#000000;stroke:#ffffff;stroke-width:80;stroke-linecap:butt;stroke-linejoin:miter;stroke-miterlimit:10;stroke-dasharray:none;stroke-opacity:1"
         transform="matrix(0.13333333,0,0,-0.13333333,0,5333.3333)" />
      <path
         id="path157"
         d="m 10608.9,11518.4 c -135.8,25.5 -271.6,50.9 -407.4,76.4"
         style="fill:#000000;stroke:#ffffff;stroke-width:80;stroke-linecap:round;stroke-linejoin:round;stroke-miterlimit:10;stroke-dasharray:none;stroke-opacity:1"
         transform="matrix(0.13333333,0,0,-0.13333333,0,5333.3333)" />
      <path
         id="path158"
         d="m 6763.63,11874.9 c -289.19,-20.5 -581.04,-3.3 -865.83,51"
         style="fill:#000000;stroke:#ffffff;stroke-width:80;stroke-linecap:butt;stroke-linejoin:miter;stroke-miterlimit:10;stroke-dasharray:none;stroke-opacity:1"
         transform="matrix(0.13333333,0,0,-0.13333333,0,5333.3333)" />
      <path
         id="path159"
         d="m 2538.45,11944 c -255.96,29.7 -518.35,2.6 -762.85,-78.7"
         style="fill:#000000;stroke:#ffffff;stroke-width:80;stroke-linecap:butt;stroke-linejoin:miter;stroke-miterlimit:10;stroke-dasharray:none;stroke-opacity:1"
         transform="matrix(0.13333333,0,0,-0.13333333,0,5333.3333)" />
      <path
         id="path160"
         d="m 3452.82,13398.1 c -288.59,17.3 -577.18,34.6 -865.76,51.9"
         style="fill:#000000;stroke:#ffffff;stroke-width:80;stroke-linecap:butt;stroke-linejoin:miter;stroke-miterlimit:10;stroke-dasharray:none;stroke-opacity:1"
         transform="matrix(0.13333333,0,0,-0.13333333,0,5333.3333)" />
      <path
         id="path161"
         d="m 8749.94,12282.4 c 169.77,33.9 339.54,67.9 509.31,101.8"
         style="fill:#000000;stroke:#ffffff;stroke-width:80;stroke-linecap:butt;stroke-linejoin:miter;stroke-miterlimit:10;stroke-dasharray:none;stroke-opacity:1"
         transform="matrix(0.13333333,0,0,-0.13333333,0,5333.3333)" />
      <path
         id="path162"
         d="m 6266.08,13617.7 c -105.11,111.3 -267.85,165 -418.56,138"
         style="fill:#000000;stroke:#ffffff;stroke-width:80;stroke-linecap:butt;stroke-linejoin:miter;stroke-miterlimit:10;stroke-dasharray:none;stroke-opacity:1"
         transform="matrix(0.13333333,0,0,-0.13333333,0,5333.3333)" />
      <path
         id="path163"
         d="m 13334.7,13524.6 c -101.9,-17 -203.7,-34 -305.6,-51"
         style="fill:#000000;stroke:#ffffff;stroke-width:80;stroke-linecap:butt;stroke-linejoin:miter;stroke-miterlimit:10;stroke-dasharray:none;stroke-opacity:1"
         transform="matrix(0.13333333,0,0,-0.13333333,0,5333.3333)" />
      <path
         id="path164"
         d="m 11296.5,14396 c -101.9,-17 -203.7,-33.9 -305.6,-50.9"
         style="fill:#000000;stroke:#ffffff;stroke-width:80;stroke-linecap:butt;stroke-linejoin:miter;stroke-miterlimit:10;stroke-dasharray:none;stroke-opacity:1"
         transform="matrix(0.13333333,0,0,-0.13333333,0,5333.3333)" />
      <path
         id="path165"
         d="m 9054.9,13705.4 c -149.17,30.4 -313.12,-29.8 -407.3,-149.4"
         style="fill:#000000;stroke:#ffffff;stroke-width:80;stroke-linecap:butt;stroke-linejoin:miter;stroke-miterlimit:10;stroke-dasharray:none;stroke-opacity:1"
         transform="matrix(0.13333333,0,0,-0.13333333,0,5333.3333)" />
      <path
         id="path166"
         d="m 10074.5,10373.4 c -102.38,40.9 -192.49,112 -255.99,202.1"
         style="fill:#000000;stroke:#ffffff;stroke-width:80;stroke-linecap:butt;stroke-linejoin:miter;stroke-miterlimit:10;stroke-dasharray:none;stroke-opacity:1"
         transform="matrix(0.13333333,0,0,-0.13333333,0,5333.3333)" />
      <path
         id="path167"
         d="m 19488.8,16839.6 c 10.9,-279.5 21.8,-559 32.7,-838.4"
         style="fill:#000000;stroke:#ffffff;stroke-width:80;stroke-linecap:round;stroke-linejoin:round;stroke-miterlimit:10;stroke-dasharray:none;stroke-opacity:1"
         transform="matrix(0.13333333,0,0,-0.13333333,0,5333.3333)" />
      <path
         id="path168"
         d="m 21337,16997.5 c 16.8,-355.1 33.5,-710.3 50.2,-1065.4 1.9,-41.6 4.5,-85.3 26.5,-120.7"
         style="fill:#000000;stroke:#ffffff;stroke-width:80;stroke-linecap:round;stroke-linejoin:round;stroke-miterlimit:10;stroke-dasharray:none;stroke-opacity:1"
         transform="matrix(0.13333333,0,0,-0.13333333,0,5333.3333)" />
      <path
         id="path169"
         d="m 24316.4,17078.5 c 14,-363.8 51,-726.8 110.7,-1086"
         style="fill:#000000;stroke:#ffffff;stroke-width:80;stroke-linecap:round;stroke-linejoin:round;stroke-miterlimit:10;stroke-dasharray:none;stroke-opacity:1"
         transform="matrix(0.13333333,0,0,-0.13333333,0,5333.3333)" />
      <path
         id="path170"
         d="m 24011.3,17062.5 c 32.3,-388.8 64.5,-777.6 96.8,-1166.5"
         style="fill:#000000;stroke:#ffffff;stroke-width:80;stroke-linecap:round;stroke-linejoin:round;stroke-miterlimit:10;stroke-dasharray:none;stroke-opacity:1"
         transform="matrix(0.13333333,0,0,-0.13333333,0,5333.3333)" />
      <path
         id="path171"
         d="m 23475.4,17062.4 c 0,-264.6 0,-529.2 0,-793.8"
         style="fill:#000000;stroke:#ffffff;stroke-width:80;stroke-linecap:round;stroke-linejoin:round;stroke-miterlimit:10;stroke-dasharray:none;stroke-opacity:1"
         transform="matrix(0.13333333,0,0,-0.13333333,0,5333.3333)" />
      <path
         id="path172"
         d="m 23131,17013.6 c 22.9,-453.6 45.8,-907.1 68.8,-1360.6"
         style="fill:#000000;stroke:#ffffff;stroke-width:80;stroke-linecap:round;stroke-linejoin:round;stroke-miterlimit:10;stroke-dasharray:none;stroke-opacity:1"
         transform="matrix(0.13333333,0,0,-0.13333333,0,5333.3333)" />
      <path
         id="path173"
         d="m 22568.2,16981.4 c 0,-334.8 0,-669.6 0,-1004.4"
         style="fill:#000000;stroke:#ffffff;stroke-width:80;stroke-linecap:round;stroke-linejoin:round;stroke-miterlimit:10;stroke-dasharray:none;stroke-opacity:1"
         transform="matrix(0.13333333,0,0,-0.13333333,0,5333.3333)" />
      <path
         id="path174"
         d="m 22229.2,16965.2 c 11.4,-345.6 22.8,-691.1 34.2,-1036.7"
         style="fill:#000000;stroke:#ffffff;stroke-width:80;stroke-linecap:round;stroke-linejoin:round;stroke-miterlimit:10;stroke-dasharray:none;stroke-opacity:1"
         transform="matrix(0.13333333,0,0,-0.13333333,0,5333.3333)" />
      <path
         id="path175"
         d="m 21774.7,16835.6 c 19.9,-318.2 19.8,-637.6 -0.5,-955.8"
         style="fill:#000000;stroke:#ffffff;stroke-width:80;stroke-linecap:round;stroke-linejoin:round;stroke-miterlimit:10;stroke-dasharray:none;stroke-opacity:1"
         transform="matrix(0.13333333,0,0,-0.13333333,0,5333.3333)" />
      <path
         id="path176"
         d="m 20695.7,16991 c 334.8,332.2 696.9,636.8 1081.5,909.9"
         style="fill:#000000;stroke:#ffffff;stroke-width:80;stroke-linecap:round;stroke-linejoin:round;stroke-miterlimit:10;stroke-dasharray:none;stroke-opacity:1"
         transform="matrix(0.13333333,0,0,-0.13333333,0,5333.3333)" />
      <path
         id="path177"
         d="m 20869,16971.1 c 712.2,46.3 1424.3,92.6 2136.5,138.9 362.9,23.6 725.7,47.2 1088.5,70.8 150.6,9.8 376.1,68.8 521.8,34 118.1,-28.2 238.1,-144.5 347.5,-205.4"
         style="fill:#000000;stroke:#ffffff;stroke-width:80;stroke-linecap:round;stroke-linejoin:round;stroke-miterlimit:10;stroke-dasharray:none;stroke-opacity:1"
         transform="matrix(0.13333333,0,0,-0.13333333,0,5333.3333)" />
      <path
         id="path178"
         d="m 21806.7,17935.7 c 683.9,-69.4 1376.1,-56.5 2056.9,38.1 228.3,-263 451.5,-555.7 722.3,-774.7"
         style="fill:#000000;stroke:#ffffff;stroke-width:80;stroke-linecap:round;stroke-linejoin:round;stroke-miterlimit:10;stroke-dasharray:none;stroke-opacity:1"
         transform="matrix(0.13333333,0,0,-0.13333333,0,5333.3333)" />
      <path
         id="path179"
         d="m 21353.3,16425.2 c 945.1,17.1 1890.2,34.2 2835.3,51.3"
         style="fill:#000000;stroke:#ffffff;stroke-width:80;stroke-linecap:round;stroke-linejoin:round;stroke-miterlimit:10;stroke-dasharray:none;stroke-opacity:1"
         transform="matrix(0.13333333,0,0,-0.13333333,0,5333.3333)" />
      <path
         id="path180"
         d="m 21466.8,16239.2 c 960.4,-54 1924.4,-44.8 2883.6,27.7"
         style="fill:#000000;stroke:#ffffff;stroke-width:80;stroke-linecap:round;stroke-linejoin:round;stroke-miterlimit:10;stroke-dasharray:none;stroke-opacity:1"
         transform="matrix(0.13333333,0,0,-0.13333333,0,5333.3333)" />
      <path
         id="path181"
         d="m 18875.7,16805.6 c 1.8,-251.7 1.5,-503.4 -0.8,-755.1 -0.1,-10.4 -1,-22.4 -9.2,-28.8 -8.3,-6.3 -24.4,2.1 -19.5,11.4"
         style="fill:#000000;stroke:#ffffff;stroke-width:80;stroke-linecap:round;stroke-linejoin:round;stroke-miterlimit:10;stroke-dasharray:none;stroke-opacity:1"
         transform="matrix(0.13333333,0,0,-0.13333333,0,5333.3333)" />
      <path
         id="path182"
         d="m 16771.5,16822.7 c 0,-310.3 0,-620.5 0,-930.8 0,19.4 0,38.7 0,58.1"
         style="fill:#000000;stroke:#ffffff;stroke-width:80;stroke-linecap:round;stroke-linejoin:round;stroke-miterlimit:10;stroke-dasharray:none;stroke-opacity:1"
         transform="matrix(0.13333333,0,0,-0.13333333,0,5333.3333)" />
      <path
         id="path183"
         d="m 17027.8,16809.6 c 261.7,-11 523.4,-22 785.2,-33 206.3,-8.6 208.5,3.8 231.6,-196.9 20.6,-179.3 28.1,-361.1 42.1,-541 -6.5,21 -13.1,42.1 -19.7,63.1"
         style="fill:#000000;stroke:#ffffff;stroke-width:80;stroke-linecap:round;stroke-linejoin:round;stroke-miterlimit:10;stroke-dasharray:none;stroke-opacity:1"
         transform="matrix(0.13333333,0,0,-0.13333333,0,5333.3333)" />
      <path
         id="path184"
         d="m 16154.7,16825.3 c 340.6,239.3 681.1,478.5 1021.7,717.7 118.8,83.4 240.7,168.3 380.8,206.3 98.1,26.6 200.9,29 302.5,30.1 281.5,3.3 563.1,-1.1 844.3,-13.1 54.2,-2.3 109,-5.1 160.9,-20.9 77.2,-23.5 142.7,-74.3 206.3,-124.1 297.6,-233 595.2,-466.1 892.8,-699.1 19,-15 40.3,-37.7 30.5,-59.8 -9.8,-22.2 -52.1,8.9 -29.2,16.6"
         style="fill:#000000;stroke:#ffffff;stroke-width:80;stroke-linecap:round;stroke-linejoin:round;stroke-miterlimit:10;stroke-dasharray:none;stroke-opacity:1"
         transform="matrix(0.13333333,0,0,-0.13333333,0,5333.3333)" />
      <path
         id="path185"
         d="m 16428.9,16823.5 c 508.3,17 1017.1,22.1 1525.8,15.1 148.4,-2 583.7,63.4 698.5,-31.6 116.3,-96.2 54.6,-484.6 45.7,-618.2"
         style="fill:#000000;stroke:#ffffff;stroke-width:80;stroke-linecap:round;stroke-linejoin:round;stroke-miterlimit:10;stroke-dasharray:none;stroke-opacity:1"
         transform="matrix(0.13333333,0,0,-0.13333333,0,5333.3333)" />
      <path
         id="path186"
         d="m 18844.6,16845 c 290.5,-116.5 625.4,63.6 929.6,-10 32.6,-7.9 67.4,-18.6 98.8,-6.7 31.4,11.9 49.4,59.5 22.3,79.2"
         style="fill:#000000;stroke:#ffffff;stroke-width:80;stroke-linecap:round;stroke-linejoin:round;stroke-miterlimit:10;stroke-dasharray:none;stroke-opacity:1"
         transform="matrix(0.13333333,0,0,-0.13333333,0,5333.3333)" />
      <path
         id="path187"
         d="m 10141.3,16700 c 96.6,137.3 193.2,274.6 289.8,411.8 103.8,147.6 213.6,300.4 373,384.9 551.1,291.8 1070.5,643.2 1546.4,1046.1 572.2,-732.8 1377.2,-1241.1 2165.4,-1734.3 143,-89.5 293.3,-181.5 461.4,-194.6 431.9,-33.9 850.1,-222.3 1161.6,-523.5 38.9,-37.6 116.9,14.9 96.8,65 -20.2,50.2 -112.8,34.2 -114.9,-19.8"
         style="fill:#000000;stroke:#ffffff;stroke-width:80;stroke-linecap:round;stroke-linejoin:round;stroke-miterlimit:10;stroke-dasharray:none;stroke-opacity:1"
         transform="matrix(0.13333333,0,0,-0.13333333,0,5333.3333)" />
      <path
         id="path188"
         d="m 10058.5,16193.8 c 59.1,152.3 122.5,310.8 245.5,418.3 123,107.4 325,143.6 446.7,34.6 59.9,-53.5 108.2,-141.6 188.4,-136.9 65.6,3.9 106.5,69.4 153.5,115.4 46.9,45.9 142.4,65.3 165.5,3.8 24.8,31 49.6,62 74.5,93 -6.8,-34 -12.5,-72.6 8.2,-100.3 20.8,-27.8 77.9,-21.3 77.4,13.3 1.8,-67.4 3.6,-134.8 5.3,-202.2 96.1,140.7 243.9,245.3 408.5,289 82.8,-74 66.1,-237.5 170.6,-274.9 49.8,-17.9 103.8,4.4 153.3,22.8 353,131.8 744.7,79 1117.5,24.4 138.5,-20.2 280.5,-41.7 402.4,-110.5 134.3,-75.8 234.2,-204 371.5,-274.3 137.3,-70.4 347.7,-47.2 392.8,100.3"
         style="fill:#000000;stroke:#ffffff;stroke-width:80;stroke-linecap:round;stroke-linejoin:round;stroke-miterlimit:10;stroke-dasharray:none;stroke-opacity:1"
         transform="matrix(0.13333333,0,0,-0.13333333,0,5333.3333)" />
      <path
         id="path189"
         d="m 12498.6,16523.5 c 10.9,155.3 21.8,310.7 32.8,466 2.6,37.2 3.4,79.5 -22.9,105.9 -37.1,37.2 -100.7,17.9 -145.6,-9.4 -81,-49.1 -150.3,-117.1 -201,-197.1 -17.8,93.1 28.5,189.2 96.6,255.2 68,66 155.5,107.5 241.3,147.9 -76.1,-7.4 -156.7,-14 -225.2,19.7 -68.6,33.7 -115.3,123.7 -75.7,188.9 116.7,-37.7 231.8,-80.3 345,-127.7 -34.4,91.4 7.5,205 93.1,252.1 22.5,-116.7 28.5,-236.6 17.5,-354.9 39.8,86.1 130.1,146.6 224.9,150.5 94.9,3.8 189.8,-49.1 236.5,-131.7 -125.6,-58.5 -251.2,-117 -376.7,-175.5 95.4,-6.5 183.6,-75.6 212.8,-166.7 -97.5,33.4 -190,81.4 -273.4,142.1 86.7,51 173.4,102 260,153.1"
         style="fill:#000000;stroke:#ffffff;stroke-width:80;stroke-linecap:round;stroke-linejoin:round;stroke-miterlimit:10;stroke-dasharray:none;stroke-opacity:1"
         transform="matrix(0.13333333,0,0,-0.13333333,0,5333.3333)" />
      <path
         id="path190"
         d="m 11341.7,16595.3 c 15.8,213.8 5.6,429.5 -30.4,640.8 -91.9,-83.5 -195.4,-154.1 -306.7,-209 68.6,119.8 149,232.8 239.6,336.9 -79.9,34.3 -149.2,93 -196.3,166.1 87.9,-4.2 174.7,-30.8 250,-76.6 -4.3,79.7 16.8,160.6 59.4,228.1 29.2,-89.5 50.9,-181.5 64.8,-274.6 55.3,68.5 152.5,100.1 237.6,77.2 -65.3,-69 -134.1,-134.6 -206.2,-196.3 88.4,-61.9 166.7,-138.2 230.8,-225 -93.1,15.7 -179.8,66.6 -238.8,140.3"
         style="fill:#000000;stroke:#ffffff;stroke-width:80;stroke-linecap:round;stroke-linejoin:round;stroke-miterlimit:10;stroke-dasharray:none;stroke-opacity:1"
         transform="matrix(0.13333333,0,0,-0.13333333,0,5333.3333)" />
      <path
         id="path191"
         d="m 37105.9,4134.5 c -77.5,34.5 -167.3,48.2 -247.8,21.3 -80.5,-26.9 -147.9,-100 -152.9,-184.6 -5,-84.9 52.8,-164.8 127.9,-204.5 75.2,-39.7 164.2,-44.8 248.6,-35.2 105.4,12 229.5,73.2 226.6,179.2 -1.6,56.1 -40.7,104.6 -85.9,137.8 -106.9,78.4 -258.3,90.7 -376.4,30.6"
         style="fill:#000000;stroke:#ffffff;stroke-width:80;stroke-linecap:butt;stroke-linejoin:miter;stroke-miterlimit:10;stroke-dasharray:none;stroke-opacity:1"
         transform="matrix(0.13333333,0,0,-0.13333333,0,5333.3333)" />
      <path
         id="path192"
         d="m 32038.3,2990.9 c -63.2,0.4 -109.1,-73.5 -94.5,-135 14.6,-61.5 73.6,-104.8 135.4,-118.5 61.7,-13.7 126.1,-3.1 188,10 69.8,14.7 157.1,60.3 139.9,129.6 -8.4,33.7 -40.4,55.8 -71.5,71.3 -85,42.4 -182.1,60.1 -276.5,50.3"
         style="fill:#000000;stroke:#ffffff;stroke-width:80;stroke-linecap:butt;stroke-linejoin:miter;stroke-miterlimit:10;stroke-dasharray:none;stroke-opacity:1"
         transform="matrix(0.13333333,0,0,-0.13333333,0,5333.3333)" />
      <path
         id="path193"
         d="m 29537.5,4208.6 c 15.3,3.3 31.5,6.2 46.3,1.8 43.6,-13.1 40.7,-70.6 28,-111.4 -28.5,-91.3 -61.5,-181.4 -99,-269.8 -6,-14.3 -12.3,-29.8 -7.7,-44.4 7.4,-23.4 37.3,-32.6 63.1,-37.7 338.8,-68 694.4,-63.5 1031.1,13 21.8,-43.9 7.5,-97.6 -23.4,-136.5 -31,-39 -76.1,-66 -121.2,-90.5 -213,-115.4 -449.1,-194.3 -692.7,-231.3 -19.3,-3 -43.2,-9.8 -45.3,-27.7 -0.8,-7.3 2.5,-14.4 5.8,-21 30.5,-61.5 65.4,-121.9 112.9,-173.4 67.7,-73.5 157.7,-125.8 237.2,-188.3 161.6,-126.9 281,-299.3 338.2,-488.2 -64.5,-51.1 -162.6,-31.6 -242.8,-5.6 -436.6,142 -829,398.4 -1119.4,731.8 -16.4,18.8 -34.3,39 -59.6,45 -27.8,6.6 -56.3,-5.9 -81.8,-17.9 -248.1,-117.3 -496.2,-234.6 -744.3,-351.9 -128,-60.6 -257.9,-121.7 -398.5,-149.8 -140.6,-28 -295.5,-19.5 -416.7,52 -20.9,12.4 -43.1,32.4 -36.6,54.5 3.4,12 14.5,20.6 25,28.3 306.4,226.9 606.7,461 900.3,702 12.5,10.2 25.7,21.7 28,37 6,39 -54.1,51.6 -96.7,52.2 -252,3.6 -491.5,170.3 -565,393.3 234,-14 461.8,-73.6 693.8,-104.7 209.4,-28 476.8,-45.5 665.5,61.5 193.5,109.8 346.3,229 575.5,277.7 z"
         style="fill:#000000;stroke:#ffffff;stroke-width:80;stroke-linecap:round;stroke-linejoin:round;stroke-miterlimit:10;stroke-dasharray:none;stroke-opacity:1"
         transform="matrix(0.13333333,0,0,-0.13333333,0,5333.3333)" />
      <path
         id="path194"
         d="m 23277.2,2922.4 c -73.8,32.9 -159.3,45.9 -236,20.3 -76.6,-25.6 -140.8,-95.2 -145.6,-175.9 -4.7,-80.7 50.3,-156.9 121.9,-194.7 71.5,-37.8 156.3,-42.7 236.7,-33.5 100.4,11.4 218.5,69.7 215.7,170.7 -1.4,53.3 -38.7,99.6 -81.8,131.2 -101.7,74.6 -245.9,86.3 -358.4,29.1"
         style="fill:#000000;stroke:#ffffff;stroke-width:80;stroke-linecap:butt;stroke-linejoin:miter;stroke-miterlimit:10;stroke-dasharray:none;stroke-opacity:1"
         transform="matrix(0.13333333,0,0,-0.13333333,0,5333.3333)" />
      <path
         id="path195"
         d="m 18451.3,1833.3 c -60.2,0.4 -103.9,-69.9 -90,-128.5 13.9,-58.6 70.1,-99.8 128.9,-112.9 58.8,-13 120.1,-3 179,9.5 66.6,14.1 149.7,57.5 133.3,123.4 -8,32.2 -38.5,53.2 -68.1,68 -80.9,40.4 -173.4,57.2 -263.3,47.9"
         style="fill:#000000;stroke:#ffffff;stroke-width:80;stroke-linecap:butt;stroke-linejoin:miter;stroke-miterlimit:10;stroke-dasharray:none;stroke-opacity:1"
         transform="matrix(0.13333333,0,0,-0.13333333,0,5333.3333)" />
      <path
         id="path196"
         d="m 34056.5,19555.6 c 166.5,98.8 389.6,92.8 550.6,-14.8 161,-107.6 251.9,-311.5 224.2,-503.1 435.1,175.7 870.2,351.4 1305.3,527.1"
         style="fill:#000000;stroke:#ffffff;stroke-width:80;stroke-linecap:round;stroke-linejoin:round;stroke-miterlimit:10;stroke-dasharray:none;stroke-opacity:1"
         transform="matrix(0.13333333,0,0,-0.13333333,0,5333.3333)" />
    </g>
  </g>
</svg>
